<?xml version="1.0" encoding="utf-8"?>
<!-- Generator: Adobe Illustrator 26.3.1, SVG Export Plug-In . SVG Version: 6.00 Build 0)  -->
<svg version="1.1" id="Capa_1" xmlns="http://www.w3.org/2000/svg" xmlns:xlink="http://www.w3.org/1999/xlink" x="0px" y="0px"
	 viewBox="0 0 513 737" style="enable-background:new 0 0 513 737;" xml:space="preserve">
<style type="text/css">
	.st0{fill:#74CCDC;}
	.st1{fill:#0A0D0F;}
	.st2{fill:#F2D1A4;}
	.st3{fill:#232423;}
	.st4{fill:#F8F8F8;}
	.st5{fill:#09A9D3;}
</style>
<path class="st0" d="M376.07,568.79c-1.41,0-2.65-0.28-3.7-0.76c-11.66-0.77-20.46-5.68-24.66-17.23c-0.13-0.18-0.25-0.36-0.37-0.55
	c-1.77-1.39-2.98-3.55-2.98-6.49V387.68c0-1.2,0.21-2.27,0.57-3.21c0-0.13,0-0.25,0-0.38c0.02-5.87-0.89-9.62-7.34-11.38
	c-7.24-1.96-13.74-5.99-20.02-10.1c-3.47-2.27-6.01-2.19-9.12,0.76c-3.96,3.77-8.5,6.91-13.73,8.84c-1.8,0.66-3.71,2.39-5.23-0.22
	c-1.46-2.5-0.31-4.28,1.87-5.81c2.35-1.64,4.34-3.86,6.83-5.21c14.22-7.69,20.71-20.07,22.37-35.64c0.33-3.14-0.08-8.06,5.21-7.01
	c4.73,0.93,2.47,5.2,2.02,7.94c-1.81,11.03,7.58,5.6,11.51,7.48c3.25,1.56,4.6,0.46,5.16-1.54c-0.03-0.12-0.08-0.24-0.08-0.36v-6.83
	c0-0.03,0.02-0.06,0.02-0.09c-0.01-0.14-0.03-0.27-0.03-0.42V50.41c-0.33-0.39-0.67-0.79-1-1.18
	c-36.12-27.25-76.64-33.56-119.82-23.6c-41.55,9.58-78.97,28.91-113.72,53.15C77,101.67,59.44,133.29,58.4,173.84
	c-0.88,34.55,6.51,67.7,16.92,100.15c9.45,29.46,24.83,56.36,39.1,83.74c17.2,32.99,22.83,68.75,21.91,105.59
	c-0.51,20.18-2.53,40.32-3.16,60.5c-0.56,17.92,0.72,35.8,6.9,52.86c13.41,36.99,43.22,52.73,79.25,58.57
	c32.42,5.25,64.35,0.43,95.72-8.83c30.7-9.06,58.53-24.23,86.01-40.08c7.24-4.18,14.84-8.45,21.04-17.54H376.07z"/>
<path class="st1" d="M491.61,568.79h-4.84c-1.77,1.25-3.45,3.28-5.65,3.33c0.4-1.16,0.74-2.15,1.14-3.33h-8.14
	c-0.59,0.41-1.13,0.94-1.59,1.68c1.12,3.71,7.38,6.77,2.99,10.99c-4.18,4.02-9.95,2.82-14.18-0.7c-4.92-4.09-11.85-5.78-15-11.98
	H422.1c-6.21,9.09-13.8,13.37-21.04,17.54c-27.48,15.85-55.3,31.01-86.01,40.08c-31.37,9.26-63.3,14.08-95.72,8.83
	c-36.04-5.84-65.85-21.58-79.25-58.57c-6.18-17.05-7.46-34.94-6.9-52.86c0.63-20.18,2.65-40.32,3.16-60.5
	c0.92-36.83-4.71-72.6-21.91-105.59c-14.27-27.37-29.65-54.28-39.1-83.74c-10.41-32.45-17.8-65.6-16.92-100.15
	c1.04-40.55,18.6-72.17,51.42-95.06c34.75-24.25,72.17-43.57,113.72-53.15c43.17-9.95,83.7-3.65,119.82,23.6
	c0.41-0.46,0.74-0.93,1-1.39v-3.54c0-0.8,0.1-1.53,0.26-2.22c-0.36-1.06-0.87-2.13-1.4-3.19c-46.08-31.6-95.29-31.82-146.15-14.33
	c-27.7,9.52-53.62,22.94-78.35,38.4c-26.3,16.45-49.36,36.49-59.91,66.99c-2.95,8.53-7.36,12.03-16.08,13.37
	c-10.1,1.54-19.2,6.43-25.33,15.19c-19.37,27.7-4.41,67.74,28.9,71.22c7.8,0.81,11.35,4.72,12.48,12.41
	c5.24,35.72,21.31,67.47,37.82,98.84c10.78,20.48,20.4,41.04,25.97,63.72c7.8,31.71,5.32,63.54,3.43,95.37
	c-0.96,16.15-1.64,32.12,0.03,48.24c0.77,7.41,4.95,15.64-4.25,21.81c-6.06,4.06-9.36,10.45-6.45,18.14
	c3.05,8.04,10.22,7.23,16.88,7.17c4.04-0.04,7.81-0.47,10.44,4.08c5.73,9.91,14.07,17.63,23.53,23.79
	c5.93,3.86,6.11,7.27,2.37,12.54c-5.28,7.43-8.39,15.63-9.77,24.38c0,0.05,0.03,0.09,0.03,0.15c-0.01,1.74,0.07,3.48,0.25,5.21
	c0.03,0.06,0.08,0.11,0.1,0.18c0.4,1.08,0.66,2.19,0.99,3.3c0.31,1.06,0.74,2.08,1.16,3.11c0.03,0.07,0.06,0.15,0.09,0.22
	c1.44,2.57,2.56,5.4,5.26,7.26c13.54,9.29,29.6,6.32,38.57-7.69c0.54-0.84,1.01-1.73,1.63-2.44c0.61-0.99,1.28-1.95,1.9-2.93
	c0.02-0.06,0.04-0.11,0.06-0.17c0.16-0.4,0.36-0.77,0.54-1.16c0.19-0.66,0.44-1.29,0.8-1.88c1.49-6.33,5.45-11.58,8.93-17.02
	c1.43-2.23,3.68-2.56,6.13-2.14c21.96,3.76,43.61,0.71,65.14-3.29c37.31-6.93,71.27-22.64,104.03-41.06
	c11.49-6.46,23.12-13.04,32.39-22.85c3.47-3.67,8.11-3.48,12.03-1.29c5.98,3.34,12.16,6.54,16.88,11.63
	c1.55,1.01,3.15,2.04,4.77,3.02c0.22,0.04,0.41,0.13,0.58,0.24c0.28,0.02,0.52,0.1,0.72,0.22c0.32,0.1,0.63,0.19,0.97,0.29
	c0.1,0.03,0.2,0.04,0.3,0.07c7.21,0.95,14.05-0.8,20.64-4.49c5.52-4.45,7.71-10.55,8.63-17.3
	C492.07,569.17,491.84,568.98,491.61,568.79z M54.09,221.73c-0.65,0.7-2.01,0.95-3.07,1.04c-15.44,1.3-33.22-16-34.04-33.06
	c-1.04-21.65,12.8-39.03,31.31-39.3c1.39-0.05,2.85-0.55,4.04,0.7c2.29,2.4-1.5,17.83-4.92,18.72c-8.43,2.19-13.16,7.88-13.16,16.04
	c0,8.24,5.03,13.71,13.35,15.93C51.48,202.84,56.6,219.02,54.09,221.73z M129.59,588.22c-3.64-0.38-7.76-0.4-7.12-5.34
	c0.53-4.07,3.41-8.99,6.92-8.73c4.29,0.32,4.66,6.34,5.64,10.1C136.22,588.81,131.87,587.64,129.59,588.22z M198.89,667.1
	c-0.63,1.28-1.33,2.69-2.39,3.58c-3.98,3.31-8.63,7.93-13.59,5.38c-4.44-2.28-2.38-8.31-1.61-12.76c0.54-3.1,1.86-6.06,2.6-9.14
	c0.53-2.2-0.27-4.29-2.59-4.74c-1.85-0.36-3.01,1.24-3.78,2.94c-2.89,6.4-3.83,13.22-3.96,21.11c-6-2.36-6.56-6.92-6.38-11.29
	c0.44-10.52,5.28-19.29,11.62-27.44c2.29-2.95,4.55-2.99,7.43-1.36c7.63,4.31,16.34,5.35,25.05,8.25
	C206.95,650.58,202.95,658.86,198.89,667.1z"/>
<path class="st1" d="M356.56,338.39c-0.88-0.35-1.67-0.75-2.42-1.18c-0.67-0.24-1.34-0.49-2-0.76c-1.99-0.81-3.94-1.7-5.94-2.47
	c-0.16-0.06-0.29-0.15-0.43-0.24c-0.52-0.15-0.92-0.54-1.12-1.04c-0.09-0.15-0.16-0.32-0.21-0.49c-0.56,2-1.91,3.1-5.16,1.54
	c-3.93-1.88-13.32,3.55-11.51-7.48c0.45-2.75,2.71-7.01-2.02-7.94c-5.29-1.04-4.88,3.88-5.21,7.01
	c-1.66,15.58-8.15,27.95-22.37,35.64c-2.49,1.35-4.48,3.57-6.83,5.21c-2.18,1.52-3.33,3.31-1.87,5.81c1.52,2.61,3.44,0.88,5.23,0.22
	c5.24-1.92,9.77-5.07,13.73-8.84c3.1-2.95,5.65-3.03,9.12-0.76c6.28,4.11,12.78,8.14,20.02,10.1c6.46,1.75,7.37,5.5,7.34,11.38
	c0,0.13,0,0.25,0,0.38c0.54-1.42,1.43-2.54,2.53-3.37c0.54-0.71,1.19-1.32,1.93-1.8c0.76-1.25,2.07-2.23,4.37-3.04
	c8.38-2.96,13.24-9.22,14-18.85C368.49,347.99,365.34,341.88,356.56,338.39z M359.68,356.04c-1.77,1.91-3.62-0.48-5.41-1.04
	c-0.82-0.26-1.57-0.72-2.38-1.02c-2.83-1.04-6.48-3.94-8.41-0.3c-2.22,4.18,2.74,4.67,5.19,6.22c0.97,0.62,2.04,1.08,3.03,1.66
	c1.67,0.98,4.34,1.52,3.73,4.04c-0.65,2.71-3.39,2.69-5.69,2.78c-3.84,0.16-7.42-0.94-10.83-2.58c-3.89-1.88-7.78-3.78-11.6-5.81
	c-8.66-4.62-9.47-12.53-2.03-19.02c1.74-1.52,3.75-1.15,5.72-1c7.56,0.5,14.78,2.32,21.83,5c2.54,0.97,4.62,2.45,5.97,4.74
	C359.95,351.66,361.54,354.04,359.68,356.04z"/>
<path class="st2" d="M471.59,568.79h-25.25c3.15,6.19,10.08,7.89,15,11.98c4.22,3.51,10,4.71,14.18,0.7
	c4.39-4.22-1.87-7.29-2.99-10.99C472.21,569.91,471.9,569.35,471.59,568.79z"/>
<path class="st0" d="M48.29,150.41c1.39-0.04,2.85-0.54,4.04,0.7c2.29,2.4-1.5,17.83-4.92,18.72c-8.43,2.19-13.16,7.88-13.16,16.04
	c0,8.24,5.03,13.71,13.35,15.93c3.88,1.04,9,17.21,6.49,19.92c-0.65,0.7-2.01,0.95-3.07,1.04c-15.44,1.3-33.22-16-34.04-33.06
	C15.93,168.06,29.78,150.68,48.29,150.41z"/>
<path class="st2" d="M211.3,641.63c-4.35,8.95-8.34,17.23-12.4,25.47c-0.63,1.28-1.33,2.69-2.39,3.58
	c-3.98,3.31-8.63,7.93-13.59,5.38c-4.44-2.28-2.38-8.31-1.61-12.76c0.54-3.1,1.86-6.06,2.6-9.14c0.53-2.2-0.27-4.29-2.59-4.74
	c-1.85-0.36-3.01,1.24-3.78,2.94c-2.89,6.4-3.83,13.22-3.96,21.11c-6-2.36-6.56-6.92-6.38-11.29c0.44-10.52,5.28-19.29,11.62-27.44
	c2.29-2.95,4.55-2.99,7.43-1.36C193.87,637.69,202.59,638.73,211.3,641.63z"/>
<path class="st2" d="M129.59,588.22c-3.64-0.38-7.76-0.4-7.12-5.34c0.53-4.07,3.41-8.99,6.92-8.73c4.29,0.32,4.66,6.34,5.64,10.1
	C136.22,588.81,131.87,587.64,129.59,588.22z"/>
<path class="st3" d="M203.71,166.88c0.1-0.27,0.2-0.55,0.32-0.81c0.1-0.39,0.2-0.79,0.31-1.18c0.06-0.22,0.16-0.42,0.3-0.59
	c0.03-0.11,0.04-0.23,0.11-0.34c0.01-0.03,0.03-0.05,0.05-0.08c0-0.16,0.02-0.32,0.06-0.48c0.04-0.1,0.08-0.2,0.13-0.3
	c0.31-1.32,1.07-2.63,1.34-3.79c2.03-8.65,1.65-17.13-0.12-25.73c-6.63-32.27-40.12-53.37-73.98-46.51
	c-32.08,6.5-53.35,37.87-47.4,69.91c4.75,25.58,25.1,45.69,50.27,49.69c27.4,4.35,53.41-8.67,66.08-32.66
	c0.8-1.52,0.76-3.94,1.82-5.5c0.04-0.3,0.17-0.56,0.34-0.8C203.38,167.4,203.5,167.11,203.71,166.88z M146.1,199.94
	c-30.08,0.12-55.45-24.65-55.19-53.89c0.25-28.03,24.88-52.8,52.6-52.9c31.59-0.12,56.61,23.26,56.8,53.06
	C200.49,175.56,176.02,199.82,146.1,199.94z"/>
<path class="st3" d="M342.45,91.09c-0.01,33.75-26.75,60.17-59.97,60.79c-35.22,0.66-63.25-26.75-63.75-60.32
	c-0.5-34.17,27.47-61.42,62.61-61.37C315.08,30.24,342.46,57.52,342.45,91.09z M278.2,143.96c28.84,1.98,54.97-20.37,56.9-48.68
	c2.05-30.02-20.61-55.24-51.92-57.78c-27.89-2.26-54.47,20.93-56.4,49.2C224.68,117.69,246.3,141.77,278.2,143.96z"/>
<path class="st2" d="M331.01,339.97c7.56,0.5,14.78,2.32,21.83,5c2.54,0.97,4.62,2.45,5.97,4.74c1.14,1.94,2.73,4.32,0.87,6.32
	c-1.77,1.91-3.62-0.48-5.41-1.04c-0.82-0.26-1.57-0.72-2.38-1.02c-2.83-1.04-6.48-3.94-8.41-0.3c-2.22,4.18,2.74,4.67,5.19,6.22
	c0.97,0.62,2.04,1.08,3.03,1.66c1.67,0.98,4.34,1.52,3.73,4.04c-0.65,2.71-3.39,2.69-5.69,2.78c-3.84,0.16-7.42-0.94-10.83-2.58
	c-3.89-1.88-7.78-3.78-11.6-5.81c-8.66-4.62-9.47-12.53-2.03-19.02C327.03,339.45,329.04,339.82,331.01,339.97z"/>
<path class="st2" d="M260.79,196.23c-11.74-1.15-21.56,2.72-29.48,11.41c-4.88,5.35-11.03,8.3-17.98,9.69
	c-6.95,1.4-11.23-2.21-13.21-8.33c-3.64-11.3,6.83-23.03,18.45-21.75c16.86,1.85,31.74-2.89,42.13-16.78
	c4.67-6.24,9.67-4.15,14.61-2.77c6.79,1.9,11.58,6.46,12.49,13.95c0.71,5.87-2.86,8.8-7.66,11.19
	C273.96,195.93,267.56,196.93,260.79,196.23z"/>
<path class="st4" d="M246.2,246.92c-3.67,0.68-6.34-1.32-7.64-4.91c-2.53-7-4.92-14.05-7.03-21.18c-0.8-2.7,10.73-14.29,13.54-13.96
	c2.11,0.25,2.4,1.99,2.99,3.65c2.88,8.09,6.13,16.05,8.8,24.21C259.04,241.42,254.22,246.9,246.2,246.92z"/>
<path class="st4" d="M266,204c6.25-1.85,9.96,1.2,11.49,8.49c0.8,3.84,3.32,7.28,4.61,11.05c2.13,6.23,1.04,11.71-5.82,13.96
	c-6.4,2.1-11.13-0.02-13.16-7.06c-1.59-5.5-3.59-10.89-5.54-16.28C253.91,204.05,253.87,204.06,266,204z"/>
<path class="st4" d="M146.1,199.94c-30.08,0.12-55.45-24.65-55.19-53.89c0.25-28.03,24.88-52.8,52.6-52.9
	c31.59-0.12,56.61,23.26,56.8,53.06C200.49,175.56,176.02,199.82,146.1,199.94z M177.42,118.75c-10.1-0.24-18.34,7.47-18.74,17.55
	c-0.41,10.28,7.88,18.97,18.17,19.02c9.73,0.05,18.14-8.15,18.47-17.99C195.64,127.78,187.16,118.98,177.42,118.75z"/>
<path class="st4" d="M278.2,143.96c-31.91-2.19-53.52-26.27-51.41-57.26c1.93-28.27,28.51-51.46,56.4-49.2
	c31.3,2.54,53.97,27.76,51.92,57.78C333.17,123.59,307.04,145.94,278.2,143.96z M329.82,85.35c0.33-11.14-5.88-18.51-16.04-19.05
	c-9.66-0.52-18.73,7.57-19.15,17.08c-0.48,10.56,7.11,18.98,17.52,19.43C322.52,103.26,329.5,96.37,329.82,85.35z"/>
<path class="st1" d="M177.42,118.75c9.75,0.23,18.23,9.03,17.9,18.58c-0.33,9.84-8.75,18.03-18.47,17.99
	c-10.29-0.05-18.58-8.73-18.17-19.02C159.08,126.22,167.32,118.51,177.42,118.75z M185.55,142.96c2.52-0.14,4.58-1.15,4.86-3.85
	c0.33-3.2-1.63-4.58-4.67-4.75c-2.99-0.17-4.35,1.97-4.44,4.19C181.21,140.84,182.67,142.88,185.55,142.96z"/>
<path class="st1" d="M329.82,85.35c-0.32,11.02-7.3,17.9-17.68,17.45c-10.41-0.45-17.99-8.86-17.52-19.43
	c0.43-9.51,9.49-17.59,19.15-17.08C323.94,66.84,330.14,74.22,329.82,85.35z M326,86.2c-0.32-1.95-1.29-4.21-4.03-4.17
	c-2.02,0.03-4.02,1.57-4.08,3.81c-0.07,2.53,1.74,4.56,4.14,4.71C323.99,90.68,325.72,89.15,326,86.2z"/>
<path class="st4" d="M185.54,142.96c-2.87-0.08-4.33-2.12-4.24-4.41c0.09-2.21,1.45-4.36,4.44-4.19c3.04,0.17,4.99,1.55,4.67,4.75
	C190.13,141.82,188.07,142.82,185.54,142.96z"/>
<path class="st4" d="M326,86.2c-0.28,2.95-2.01,4.48-3.97,4.36c-2.4-0.16-4.21-2.19-4.14-4.71c0.06-2.24,2.06-3.77,4.08-3.81
	C324.71,81.99,325.68,84.25,326,86.2z"/>
<path class="st1" d="M285.7,198.65c5.29-2.85,9.21-6.79,9.16-13.82c-0.08-13.14-6.16-21.57-20.23-24.79
	c-7.09-1.62-14.28-1.56-19.01-8.68c-1.89-2.85-6.23-2.62-9.71-2.84c-14.43-0.9-25.99,4.31-35.42,14.05
	c-0.27,1.17-0.68,2.3-1.14,3.43c-0.24,0.58-0.47,1.17-0.68,1.76c-0.19,1.01-0.42,2.01-0.66,3c0,0.1-0.01,0.2,0,0.3
	c0.01,0.32-0.11,0.59-0.26,0.83c-0.21,0.88-0.41,1.76-0.57,2.65c-0.48,4.34-2.68,8.1-7.18,11.48c-5.13,3.86-7.09,10.54-8.03,16.87
	c-1.71,11.52,8.76,22.95,19.74,22.42c4.42-0.21,9.42-4.79,12.82-1.03c2.79,3.08,2.91,8.56,4.26,12.96c0.59,1.93,1.23,3.85,1.98,5.72
	c5.16,12.8,18.94,15.91,28.62,5.98c3.42-3.51,6.25-4.38,11.06-3.87c13.39,1.4,18.92-4.42,19.08-17.8
	c0.09-7.55-3.65-13.76-6.36-20.17C281.27,202.58,281.5,200.91,285.7,198.65z M246.2,246.92c-3.67,0.68-6.34-1.32-7.64-4.91
	c-2.53-7-4.92-14.05-7.03-21.18c-0.8-2.7,10.73-14.29,13.54-13.96c2.11,0.25,2.4,1.99,2.99,3.65c2.88,8.09,6.13,16.05,8.8,24.21
	C259.04,241.42,254.22,246.9,246.2,246.92z M282.1,223.54c2.13,6.23,1.04,11.72-5.82,13.96c-6.4,2.1-11.13-0.02-13.16-7.06
	c-1.59-5.5-3.59-10.89-5.54-16.28c-3.66-10.12-3.7-10.11,8.43-10.17c6.25-1.85,9.96,1.2,11.49,8.49
	C278.29,216.32,280.81,219.77,282.1,223.54z M280.14,192.85c-6.18,3.08-12.58,4.08-19.35,3.38c-11.75-1.15-21.56,2.73-29.48,11.42
	c-4.88,5.35-11.03,8.3-17.98,9.69c-6.95,1.4-11.23-2.21-13.21-8.33c-3.64-11.3,6.83-23.03,18.45-21.75
	c16.86,1.85,31.74-2.89,42.13-16.78c4.67-6.24,9.67-4.15,14.61-2.77c6.79,1.9,11.58,6.46,12.49,13.95
	C288.51,187.52,284.94,190.46,280.14,192.85z"/>
<path d="M90.91,330.06c0,0,215.79-8.16,253.45-59.38l0.09,61.53v3.82l-17.06-1.24l-7.16,5.03l-3.24,11.51l3.24,9.41l15.01,7.66
	l9.21,2.93l-0.09,78.6l0.09,37.35c0,0-90.31,32.4-218.45,12.79c0,0,5.43-34.22,2.82-76.34c0,0-4.35-49.06-16.49-59.46L98.46,366
	l-14.65-14.68l2.98-29.35L90.91,330.06z"/>
<path class="st5" d="M335.05,373.07c-0.42-0.17-0.84-0.34-1.25-0.52c-0.21,0.58-0.43,1.16-0.6,1.78
	c-3.21,11.52-9.95,14.44-19.7,15.66c-1.56,0.19-3.09,0.67-4.64,1.03c-9.02,2.11-9.02,2.11-10.04,11.71
	c0.37,2.71,1.87,3.06,4.39,2.62c3.98-0.69,7.71-2.95,11.95-1.99c2.27,1.72,0.22,3.17-0.48,4.44c-4.04,7.24-13.13,10.27-19.96,6.82
	c-6.88-3.48-9.93-13.35-6.55-21.16c4-9.25,13.01-14.35,20.61-10.53c4.61,2.32,7.75,1.37,11.44-0.97c1.92-1.22,4-2.21,6.08-3.15
	c2.89-1.31,3.04-2.77,0.89-5.1c-5.7-6.19-12.76-9.31-21.06-9.39c-15.76-0.14-30.72,12.3-35.33,27.49
	c-3.44,11.32-2.76,21.49,4.41,30.76c11.28,14.58,34.06,14.57,48.11,0.32c4.91-4.99,7.94-11.06,10.22-17.71
	c3.33,3.78,6.67,7.27,10.7,9.79v-33.01c-0.13-0.14-0.26-0.29-0.39-0.43C340.73,378.95,337.8,376.12,335.05,373.07z"/>
<path class="st5" d="M264.54,390.75c-0.04,3.21-1.49,4.12-3.56,4.6c-9.4,2.17-18.78,4.4-28.49,6.68c-0.19-2.6,0.82-3.92,2.92-4.42
	C244.95,395.34,254.51,393.11,264.54,390.75z"/>
<path class="st5" d="M221.67,412.48c-0.36-2.95,1.33-3.62,3.37-4.1c11.47-2.67,22.93-5.4,34.4-8.05c0.99-0.23,2.59-1.32,2.94,0.7
	c0.24,1.42-0.92,2.1-2.25,2.41C247.33,406.44,234.54,409.46,221.67,412.48z"/>
<path class="st5" d="M243.62,415.91c0.22-1.31,0.11-2.35,0.48-2.58c5.31-3.26,11.54-3.37,17.37-4.86c0.7-0.18,1.15,0.62,1.19,1.38
	c0.07,1.34-0.87,1.78-1.93,2.03C255.16,413.2,249.59,414.5,243.62,415.91z"/>
</svg>
