<?xml version="1.0" encoding="utf-8"?>
<!-- Generator: Adobe Illustrator 26.3.1, SVG Export Plug-In . SVG Version: 6.00 Build 0)  -->
<svg version="1.1" id="Capa_1" xmlns="http://www.w3.org/2000/svg" xmlns:xlink="http://www.w3.org/1999/xlink" x="0px" y="0px"
	 viewBox="0 0 513 737" style="enable-background:new 0 0 513 737;" xml:space="preserve">
<style type="text/css">
	.st0{fill:#74CCDC;}
	.st1{fill:#F2D1A4;}
	.st2{fill:#F7F7F7;}
	.st3{fill:#09A9D3;}
	.st4{fill:#FEFEFE;}
</style>
<path class="st0" d="M62.07,525.06c26.07,19.19,56,26.64,86.35,32.75c14.14,2.85,28.4,5.82,42.74,6.81
	c26.88,1.86,53.85,3.13,80.82,0.8c6.54-0.56,13.26-0.21,19.61-1.16c6.64-0.99,13.32-2.32,20.01-3.35c9.74-1.5,19.69-2.6,29.11-4.98
	c19.23-4.84,38.54-9.57,57.39-15.91c11.62-3.91,23.09-8.29,34.55-12.55c6.84-2.55,13.22-6.95,20.72-10.84
	c-1.5,9.29-2.62,17.93-4.32,26.45c-3.42,17.05-8.25,33.67-15.66,49.48c-16.23,34.64-43.78,56.69-78.65,70.34
	C319.66,676.65,283,680.97,245.6,680.3c-32.08-0.58-63.53-4.81-93.39-17.27c-14.16-5.91-27.61-13.16-39.67-22.88
	c-24.46-19.69-39-45.24-45.48-75.7C64.34,551.63,62.81,538.68,62.07,525.06z"/>
<path class="st0" d="M397.89,89.41c15.64-11.66,36.62-11.3,51.96,0.76c15.06,11.83,21.35,32.48,14.08,48.52
	c-4.39,9.68-11.77,16.9-21.68,21.3c-2.38,1.05-3.34,0.49-4.1-1.98c-2.48-8.12-5.07-16.21-7.9-24.21c-0.73-2.08,0.19-3,1.22-4.31
	c4.18-5.34,4.65-11.27,1.41-16.56c-3.99-6.51-8.76-9.07-15.83-7.34c-4.28,1.05-5.53-2.34-7.58-4.13
	C405.36,97.87,401.85,93.6,397.89,89.41z"/>
<path class="st0" d="M106.8,96.51c-6.28,6.1-11.72,11.91-16.58,18.24c-1.95,2.55-4.27,3.55-7.68,1.52
	c-6.19-3.68-14.66-1.33-18.84,4.7c-5,7.21-4.47,14.21,1.64,19.66c2.19,1.95,6.3,3.38,6.6,5.46c0.44,3.09-1.75,6.55-2.81,9.85
	c-0.7,2.19-1.44,4.37-2.03,6.59c-1.62,6.12-1.6,6.14-7.18,3.56c-35.32-16.32-24.94-54.05-4.44-68.42
	C72.15,85.99,89,87.34,106.8,96.51z"/>
<path class="st1" d="M141.16,663.21c-12.57,4.08-21.42,12.03-30.34,19.93c-3.22,2.85-6.86,5.26-10.82,7.02
	c-3.27,1.45-6.7,1.89-9.98-0.19c-3.51-2.22-4.97-4.93-3.17-9.2c1.76-4.18,4.26-7.87,6.98-11.37c1.33-1.72,1.73-3.99,0.74-4.75
	c-1.85-1.43-3.16,0.73-4.06,2.2c-2.53,4.15-4.94,8.37-7.32,12.61c-0.68,1.22-1.29,2.36-2.91,2.26c-1.55-0.09-1.57-1.57-2.02-2.51
	c-2.96-6.14-1.32-11.89,2.27-17.03c6.12-8.78,15.2-14.28,23.63-20.47c1.21-0.89,2.14-1.18,3.48-0.03
	C117.53,650.24,128.47,657.26,141.16,663.21z"/>
<path class="st1" d="M422.95,650.96c4.69,4.21,6.69,9.95,8.57,15.64c1.67,5.05-0.16,9.4-3.99,13.25c-1.74-1.53-1.99-3.68-2.64-5.59
	c-1.3-3.8-3.19-7.26-5.7-10.39c-0.9-1.12-1.93-2.86-3.57-1.64c-1.77,1.31-0.2,2.62,0.73,3.72c3.62,4.28,4.95,9.64,7.06,14.65
	c0.76,1.79,0,2.42-1.13,3.18c-3.48,2.33-7.08,3.49-11.17,1.41c-5.92-3.02-10.97-6.6-14.63-12.66c-3.36-5.57-8.58-10-13.98-13.89
	c-1.82-1.31-2.64-2.19-0.06-3.87c6.17-4.01,12.11-8.36,18.15-12.57c0.27-0.19,0.73-0.22,0.85-0.46c1.18-2.27,3.01-5.1,5.3-4.36
	c3,0.96,6.4,2.28,8.25,5.42c0.39,0.36,0.78,0.73,1.17,1.09c0,0-0.16-0.15-0.15-0.15c0.39,0.38,0.77,0.75,1.16,1.13
	c0,0-0.1-0.12-0.1-0.12c-0.11,1.49,0.57,2.19,2.06,2.08c0,0-0.11-0.09-0.11-0.09c0.38,0.37,0.75,0.75,1.13,1.12
	c0,0-0.14-0.12-0.14-0.12c0.36,0.38,0.71,0.76,1.06,1.14c0,0-0.04-0.04-0.04-0.04c0.01,0.97,0.13,1.85,1.47,1.65
	c0,0,0.18,0.06,0.18,0.06c-0.14,0.22-0.27,0.44-0.41,0.66C422.51,651.12,422.73,651.04,422.95,650.96z"/>
<path class="st1" d="M47.9,397.9c3.34,6.03,2.98,7.04-3.43,8.95c-3.36,1-6.8,1.48-10.32,1.17c-3.38-0.3-4.49-2.91-5.65-5.53
	c-1.47-3.35,1.97-2.62,3.11-3.8c0.57-0.59,1.3-1.03,1.91-1.59c0.98-0.9,2.29-1.98,1.15-3.32c-1.07-1.26-2.75-1.21-3.92,0.08
	c-1.52,1.67-2.93,4.26-5.45,2.46c-2.63-1.88-1.46-4.71-0.45-7.25c2.13-5.35,5.67-9.4,11.18-11.2c3.48-1.14,5.91-4.17,9.9-4.49
	c3.77-0.3,4.59,0.8,3.38,4.09c-0.44,1.21-0.94,2.41-1.41,3.61C46.59,386.7,46.63,392.3,47.9,397.9z"/>
<path class="st1" d="M490.25,390.31c0.15,1.42-0.18,2.77-1.44,3.47c-1.57,0.87-2.74-0.75-4.14-0.99c-1.83-0.32-2.9-4.8-4.99-1.61
	c-1.59,2.42,1.72,3.81,3.34,5.07c1.71,1.33,3.82,1.82,2.23,4.82c-1.56,2.94-3.42,4.69-6.92,4.59c-2.09-0.06-1.56-1.5-1.4-2.39
	c1.65-8.9,1.68-17.77-0.39-26.6c-0.38-1.62-0.03-2.18,1.62-1.77C483.05,376.09,490.14,385.13,490.25,390.31z"/>
<path class="st0" d="M227.9,450.79c-0.24,2.58,1.06,3.22,3.48,3.37c3.81,0.22,7.74-1.04,11.44,0.76c-4.14,0.04-8.29,0.03-12.43,0.15
	C226.82,455.16,225.7,453.98,227.9,450.79z"/>
<path class="st2" d="M47.9,397.9c-1.27-5.6-1.31-11.21,0.01-16.81C47.9,386.7,47.9,392.3,47.9,397.9z"/>
<path class="st2" d="M419.15,646.83c-1.49,0.11-2.18-0.59-2.06-2.08C417.78,645.44,418.46,646.14,419.15,646.83z"/>
<path class="st2" d="M422.52,650.48c-1.34,0.21-1.45-0.67-1.47-1.65C421.55,649.38,422.03,649.93,422.52,650.48z"/>
<path class="st2" d="M416.18,643.89c-0.39-0.36-0.78-0.73-1.17-1.09C415.4,643.17,415.79,643.53,416.18,643.89z"/>
<path class="st2" d="M417.19,644.87c-0.39-0.38-0.77-0.75-1.16-1.13C416.41,644.12,416.8,644.49,417.19,644.87z"/>
<path class="st2" d="M420.17,647.86c-0.38-0.37-0.75-0.75-1.13-1.12C419.42,647.12,419.8,647.49,420.17,647.86z"/>
<path class="st2" d="M421.1,648.88c-0.35-0.38-0.71-0.76-1.06-1.14C420.39,648.12,420.74,648.5,421.1,648.88z"/>
<path class="st2" d="M422.95,650.96c-0.22,0.08-0.44,0.16-0.66,0.24c0.14-0.22,0.27-0.44,0.41-0.66
	C422.9,650.61,422.99,650.75,422.95,650.96z"/>
<path d="M494.68,386.82c-1.7-5.62-5.21-9.85-10.03-13.2c-4.68-3.26-10.42-4.8-14.34-9.39c-1.63-1.91-4.64-1.49-7.13-1.49
	c-1.76,0-3.53,0.17-6.38,0.32c3.01-2.47,6.37-3.32,7.27-6.23c2.74-8.88,5.21-17.88,4.78-27.29c-0.23-4.95-2.48-6.53-7.46-6.6
	c-2.87-0.04-5.38,1.4-8.43,1.68c0.04-23.92,0.14-47.73-0.97-71.53c-1.33-28.43-3.91-56.69-10.99-84.35c-0.8-3.14-0.52-4.5,2.86-6
	c29.5-13.02,33.44-41.93,17.96-64.82c-14.11-20.86-40.88-25.71-61.24-14.7c-5.05,2.73-8.15,2.53-12.4-1.14
	c-5.24-4.53-11.46-7.85-17.66-11.06c-28.19-14.57-58.74-19-89.86-20.95c-29.58-1.86-58.79,1.07-87.75,6.97
	c-29.52,6.02-57.44,15.82-81.16,35.2c-1.97,1.61-3.06,1.32-5.02,0.21c-12.3-7-25.34-8.45-38.86-4.36
	c-22.48,6.79-37.21,29.23-33.73,52.26c2.35,15.53,13.22,24.34,26.77,30.24c2.66,1.16,3.46,2.1,2.76,5.04
	c-4.48,18.66-6.34,37.65-6.63,56.82c-0.38,25.35,1.32,50.58,3.85,75.78c0.94,9.34,1.01,9.48-7.5,13.69c-2.74,1.36-3.46,3.15-3.4,5.9
	c0.19,8.77,3.28,16.83,5.74,25.08c1.2,4.02,2.66,7.64,7.48,9.97c-3.55-0.01-6.49-0.02-8,1.95c-2.4,3.14-5.77,3.3-8.98,4.34
	c-7.94,2.56-15.63,5.7-21.16,12.37c-3.14,3.78-6.82,9.01-4.56,12.94c3.23,5.62,3.67,13.25,10.37,16.77
	c1.85,0.97,3.77,1.21,5.76,1.06c2.99-0.21,5.9-0.92,8.62-2.18c3.67-1.7,7.29-3.67,9.99,1.47c0.31,0.6,1.42,1.1,2.16,1.1
	c3.26,0.01,2.64,2.08,2.41,4.09c-3.08,26.81-4.73,53.72-5.6,80.68c-0.25,7.69-1.7,15.73,3.7,22.6c0.43,0.55,0.25,1.61,0.31,2.44
	c0.71,9.79,1.34,19.58,2.83,29.29c3.6,23.5,10.41,45.81,24.21,65.51c5.41,7.73,11.83,14.62,18.85,21.26
	c-2.35,1.65-4.4,3.06-6.41,4.51c-6.6,4.79-13.22,9.59-18.32,16.07c-5.69,7.23-7.31,14.98-3.22,23.67c1.51,3.22,4.86,3.75,6.94,5.91
	c7.01,7.27,13.88,8.39,22.37,3.09c5.36-3.34,10.32-7.22,14.92-11.6c11.69-11.15,24.15-16.26,40.85-9.62
	c20.11,7.99,41.45,11.95,63.18,13.48c21.33,1.5,42.56,1.13,63.82-1.07c26.71-2.75,52.56-8.67,77.09-19.82
	c11.64-5.29,13.31-5.03,22.27,4.42c1.6,1.68,2.98,3.57,4.46,5.36c3.3,3.97,6.61,7.92,10.55,11.29c11.41,9.77,29.67,3.77,33.37-11.02
	c2.15-8.6-1.82-15.52-6.46-22.12c-5.11-7.27-11.82-13.01-18.77-18.44c3.43-3.96,6.89-7.57,9.92-11.51
	c20.02-25.94,28.88-56.22,34.43-87.89c1.48-8.42-0.95-18.19,7.41-24.8c1.2-0.95,1.16-3.74,1.31-5.71
	c0.46-5.98,1.02-11.97,1.02-17.95c-0.01-20.83-1.05-41.62-2.68-62.38c-0.28-3.62-1.35-7.29,4.78-6.78c2.76,0.23,5.33-1.87,6.69-4.59
	c0.8-1.59,1.61-1.95,3.48-1.72c7.44,0.93,11.97-2.36,13.7-9.75c0.31-1.33,0.47-2.43,1.68-3.34
	C495.77,393.8,495.75,390.34,494.68,386.82z M44.46,406.86c-3.36,1-6.8,1.48-10.32,1.17c-3.38-0.3-4.49-2.91-5.65-5.53
	c-1.47-3.35,1.97-2.62,3.11-3.8c0.57-0.59,1.3-1.03,1.91-1.59c0.98-0.9,2.29-1.98,1.15-3.32c-1.07-1.26-2.75-1.21-3.92,0.08
	c-1.52,1.67-2.93,4.26-5.45,2.46c-2.63-1.88-1.46-4.71-0.45-7.25c2.13-5.35,5.67-9.4,11.18-11.2c3.48-1.14,5.91-4.17,9.9-4.49
	c3.77-0.3,4.59,0.8,3.38,4.09c-0.44,1.21-0.94,2.41-1.41,3.61c0,5.6-0.01,11.21-0.01,16.81C51.24,403.93,50.87,404.95,44.46,406.86z
	 M449.86,90.17c15.06,11.83,21.35,32.48,14.08,48.52c-4.39,9.68-11.77,16.9-21.68,21.3c-2.38,1.05-3.34,0.49-4.1-1.98
	c-2.48-8.12-5.07-16.21-7.9-24.21c-0.73-2.08,0.19-3,1.22-4.31c4.18-5.34,4.65-11.27,1.41-16.56c-3.99-6.51-8.76-9.07-15.83-7.34
	c-4.28,1.05-5.53-2.34-7.58-4.13c-4.11-3.58-7.62-7.85-11.58-12.04C413.54,77.75,434.51,78.11,449.86,90.17z M59.93,166.09
	c-35.32-16.32-24.94-54.05-4.44-68.42C72.15,85.99,89,87.34,106.8,96.51c-6.28,6.1-11.72,11.91-16.58,18.24
	c-1.95,2.55-4.27,3.55-7.68,1.52c-6.19-3.68-14.66-1.33-18.84,4.7c-5,7.21-4.47,14.21,1.64,19.66c2.19,1.95,6.3,3.38,6.6,5.46
	c0.44,3.09-1.75,6.55-2.81,9.85c-0.7,2.19-1.44,4.37-2.03,6.59C65.48,168.65,65.51,168.67,59.93,166.09z M61.15,221.04
	c1.43-29.27,6.65-57.79,19.85-84.3c5.32-10.69,11.93-20.42,20.46-29.12c8.45-8.63,16.91-17.02,27.33-23.12
	c23.82-13.93,49.64-22.23,76.82-26.44c8.88-1.37,17.76-2.87,26.69-3.68c16.06-1.46,32.17-2.92,48.31-1.29
	c11.09,1.12,22.33,1.77,33.15,4.2c11.07,2.49,22.6,3.4,33.15,7.81c7.1,2.97,14.22,5.98,21.25,9.15
	c15.53,7.02,27.76,17.8,38.94,30.18c15.49,17.16,23.2,38.05,28.98,59.92c10.29,38.91,12.51,78.68,13.04,122.83
	c0,9.49-0.06,23.15,0.05,36.81c0.02,2.52-0.46,3.64-3.24,4.35c-33.2,8.46-66.63,15.76-100.52,20.88
	c-13.59,2.05-27.21,3.68-40.9,4.96c-22.36,2.1-44.77,2.6-67.15,1.75c-19.06-0.72-38.09-2.59-57.02-5.09
	c-29.99-3.96-59.71-9.38-89.05-16.76c-7.49-1.88-14.9-4.06-22.35-6.07c-1.72-0.46-2.81-1.09-3-3.26
	C62.92,290.25,59.46,255.74,61.15,221.04z M110.82,683.14c-3.22,2.85-6.86,5.26-10.82,7.02c-3.27,1.45-6.7,1.89-9.98-0.19
	c-3.51-2.22-4.97-4.93-3.17-9.2c1.76-4.18,4.26-7.87,6.98-11.37c1.33-1.72,1.73-3.99,0.74-4.75c-1.85-1.43-3.16,0.73-4.06,2.2
	c-2.53,4.15-4.94,8.37-7.32,12.61c-0.68,1.22-1.29,2.36-2.91,2.26c-1.55-0.09-1.57-1.57-2.02-2.51c-2.96-6.14-1.32-11.89,2.27-17.03
	c6.12-8.78,15.2-14.28,23.63-20.47c1.21-0.89,2.14-1.18,3.48-0.03c9.91,8.55,20.85,15.57,33.54,21.53
	C128.6,667.3,119.74,675.24,110.82,683.14z M415.01,642.8c0.39,0.36,0.78,0.73,1.17,1.09l-0.16-0.15c0.39,0.38,0.78,0.75,1.16,1.13
	l-0.1-0.12c0.69,0.69,1.38,1.39,2.06,2.08l-0.11-0.09c0.38,0.37,0.75,0.75,1.13,1.12l-0.14-0.13c0.34,0.37,0.68,0.73,1.02,1.1
	c0.49,0.55,0.98,1.1,1.47,1.64l0.18,0.06c0.2,0.07,0.29,0.21,0.25,0.42c4.69,4.21,6.69,9.95,8.57,15.64
	c1.67,5.04-0.16,9.4-3.99,13.25c-1.74-1.53-1.99-3.68-2.64-5.59c-1.3-3.8-3.19-7.26-5.7-10.39c-0.9-1.12-1.93-2.86-3.57-1.64
	c-1.77,1.31-0.2,2.62,0.73,3.72c3.62,4.28,4.95,9.64,7.06,14.65c0.76,1.79,0,2.42-1.13,3.18c-3.48,2.33-7.08,3.49-11.17,1.41
	c-5.92-3.02-10.97-6.6-14.63-12.66c-3.36-5.57-8.58-10-13.98-13.89c-1.82-1.31-2.64-2.19-0.06-3.87
	c6.17-4.01,12.11-8.36,18.15-12.57c0.27-0.19,0.73-0.22,0.85-0.46c1.18-2.27,3.01-5.1,5.3-4.36
	C409.76,638.34,413.16,639.65,415.01,642.8z M449.03,543.1c-3.42,17.05-8.25,33.67-15.66,49.48
	c-16.23,34.64-43.78,56.69-78.65,70.34C319.66,676.65,283,680.97,245.6,680.3c-32.08-0.57-63.53-4.81-93.39-17.27
	c-14.16-5.91-27.61-13.16-39.67-22.88c-24.46-19.69-39-45.24-45.48-75.7c-2.73-12.82-4.25-25.77-5-39.39
	c26.07,19.19,56,26.64,86.35,32.75c14.14,2.85,28.4,5.82,42.74,6.81c26.88,1.86,53.85,3.13,80.82,0.8
	c6.54-0.56,13.26-0.21,19.61-1.16c6.64-0.99,13.32-2.31,20.01-3.35c9.74-1.5,19.69-2.6,29.11-4.98
	c19.23-4.84,38.54-9.57,57.39-15.91c11.62-3.91,23.09-8.29,34.55-12.55c6.84-2.55,13.22-6.95,20.72-10.84
	C451.86,525.94,450.74,534.58,449.03,543.1z M488.81,393.77c-1.57,0.87-2.74-0.75-4.14-0.99c-1.83-0.32-2.9-4.8-4.99-1.61
	c-1.59,2.42,1.71,3.81,3.34,5.07c1.71,1.33,3.82,1.82,2.23,4.82c-1.56,2.94-3.42,4.69-6.92,4.59c-2.09-0.06-1.56-1.5-1.4-2.39
	c1.65-8.9,1.68-17.77-0.39-26.6c-0.38-1.62-0.03-2.18,1.62-1.77c4.88,1.2,11.97,10.24,12.08,15.42
	C490.4,391.73,490.07,393.07,488.81,393.77z"/>
<g>
	<path class="st3" d="M227.9,450.79c3.02-8.62,3.02-8.62,11.79-8.61c1.5,0,3.01-0.11,4.5,0.05c9.25,0.99,16.1-0.24,21.55-10.16
		c6.93-12.61,20.35-16.24,34.27-14.81c16.83,1.73,26.98,16.58,24.05,33.95c-3.77,22.39-32.3,35.88-51.95,24.6
		c-6.05-3.47-9.46-9.1-12.75-15.25c-3.54,5.63-7.65,10.57-13.25,14.1c-16.03,10.09-37.02,5.17-44.26-10.71
		c-4.6-10.1-3.02-19.61,2.6-29.3c7.54-13,24.01-21.23,38.51-17.68c7.64,1.87,13.46,6.28,17.37,13.21c1.47,2.61,1.02,3.92-1.93,4.51
		c-2.12,0.42-4.25,0.88-6.28,1.59c-3.9,1.36-7,1.56-10.75-1.58c-6.17-5.16-15.58-2.42-21.27,5.24c-4.81,6.47-4.13,16.22,1.45,20.92
		c5.54,4.66,14.58,3.83,19.87-1.96c0.92-1.01,3.13-1.91,1.41-3.99c-3.7-1.8-7.63-0.53-11.44-0.76
		C228.96,454.01,227.66,453.37,227.9,450.79z M275.91,450c-0.03,8.18,5.96,14.05,14.28,14.01c9.14-0.05,17.49-8.47,17.54-17.71
		c0.05-7.83-6.16-14.19-13.78-14.11C284.34,432.29,275.94,440.58,275.91,450z"/>
	<path class="st3" d="M198.91,432.31c-0.74,2.95-2.27,3.47-4.28,3.46c-9.13-0.03-18.26-0.01-27.7-0.01c0.39-2.44,1.6-3.43,3.64-3.44
		C179.87,432.3,189.15,432.31,198.91,432.31z"/>
	<path class="st3" d="M154.7,443.05c0.31-2.8,2.01-3.05,3.99-3.05c11.15,0.02,22.29-0.01,33.44,0.04c0.96,0,2.67-0.66,2.55,1.28
		c-0.08,1.37-1.3,1.74-2.59,1.74C179.65,443.04,167.21,443.05,154.7,443.05z"/>
	<path class="st3" d="M174.18,450.96c0.49-1.16,0.61-2.14,1-2.27c5.6-1.85,11.36-0.6,17.06-0.72c0.68-0.01,0.93,0.82,0.8,1.53
		c-0.23,1.25-1.19,1.45-2.22,1.45C185.41,450.97,179.99,450.96,174.18,450.96z"/>
</g>
<path class="st0" d="M449.13,287.2c-0.53-44.15-2.75-83.92-13.04-122.83c-5.79-21.87-13.49-42.77-28.98-59.92
	c-11.18-12.38-23.4-23.16-38.94-30.18c-7.03-3.18-14.15-6.18-21.25-9.15c-10.54-4.41-22.08-5.32-33.15-7.81
	c-10.82-2.43-22.06-3.09-33.15-4.2c-16.14-1.63-32.25-0.17-48.31,1.29c-8.93,0.81-17.81,2.31-26.69,3.68
	c-27.19,4.2-53,12.5-76.82,26.44c-10.42,6.1-18.88,14.49-27.33,23.12c-8.53,8.71-15.13,18.44-20.46,29.12
	c-13.21,26.51-18.43,55.03-19.85,84.3c-1.69,34.7,1.77,69.21,4.79,103.72c0.19,2.17,1.29,2.8,3,3.26
	c7.45,2.02,14.86,4.19,22.35,6.07c29.35,7.38,59.06,12.8,89.05,16.76c18.93,2.5,37.96,4.37,57.02,5.09
	c22.39,0.85,44.8,0.35,67.15-1.75c13.69-1.29,27.31-2.91,40.9-4.96c33.89-5.11,67.32-12.42,100.52-20.88
	c2.78-0.71,3.26-1.83,3.24-4.35C449.07,310.34,449.13,296.68,449.13,287.2z"/>
<g>
	<path d="M252.64,271.96c-4.07,4.58-8.61,7.24-14.34,8.13c-4.91,0.76-7.7-1.37-9.98-5.38c-4.84-8.53-6.84-17.57-5.51-27.28
		c0.27-1.95-0.19-2.59-2.18-2.75c-10.99-0.93-17.73-15.94-12.91-27.14c3.21-7.46,8.52-12.56,16.21-15.18
		c1.32-0.45,2.88-0.22,3.23-2.39c1.92-11.67,9.74-16.9,20.7-18.45c7.68-1.09,15.28-0.99,22.4,2.63c5.47,2.78,9.56,6.77,9.8,13.33
		c0.12,3.38,2.83,4.08,4.89,5.29c5.48,3.22,10.71,6.69,14.96,11.48c5.98,6.75,7.13,13.89,3.43,21.13
		c-3.68,7.2-10.65,10.81-19.44,9.74c-3.25-0.4-4.16,0.85-4.01,3.84c0.31,6.28,0.55,12.59,0.98,18.83
		c0.68,9.98-14.36,17.1-22.1,10.51C256.61,276.44,254.58,274.54,252.64,271.96z M285.21,242.2c8.38,0.16,12.5-3.38,15.43-8.26
		c2.79-4.66,2.36-9.58-0.65-14.14c-4.16-6.29-10.28-10.26-16.66-13.96c-2.26-1.31-3.97-1.33-6.26,0.19
		c-6.73,4.47-14.23,7.2-22.31,7.59c-9.53,0.45-19.13,0.48-26.18-7.67c-1.07-1.24-1.97-0.68-3.08-0.3
		c-7.33,2.48-14.6,9.3-15.15,19.08c-0.56,10.07,6.39,17.32,15.95,16.21c3.75-0.44,7.62-1.34,11.06-2.86
		c12.71-5.65,25.13-5.67,37.66,0.54C278.84,240.51,282.89,242.19,285.21,242.2z M277.06,257.89c0.03,0,0.06,0,0.09,0
		c-0.18-3.82-0.44-7.64-0.51-11.47c-0.04-2.01-0.54-3.4-2.53-4.34c-4.98-2.36-10.16-3.99-15.59-4.86c-1.42-0.23-2.42-0.38-2.6,1.72
		c-0.76,8.77-1.81,17.52-1.04,26.36c0.5,5.77,6.13,11.99,11.19,12.01c6.32,0.03,10.85-4.87,10.99-11.93
		C277.1,262.89,277.06,260.39,277.06,257.89z M250.6,241.22c0.91-3.57-1.07-3.74-4.61-2.56c-5.78,1.93-11.32,4.67-17.45,5.49
		c-1.85,0.25-1.82,1.78-1.99,3c-1.23,8.77-0.06,17.14,4.6,24.82c2.24,3.69,5.5,5.19,9.71,3.94c4.28-1.26,9.4-7.06,9.31-10.42
		C249.94,257.68,249.79,249.88,250.6,241.22z"/>
	<path d="M261.03,142.98c0.51-29.86,23.59-51.82,50.69-57.83c15.27-3.39,30.54-2.58,44.11,4.62c35.41,18.77,42.41,71.43,8.29,95.7
		c-27.34,19.45-66.23,17.2-87.91-5.31C266.41,170,260.92,156.55,261.03,142.98z M322.7,195.03c7.62,0.44,15.73-1.2,23.53-4.13
		c20.76-7.8,34.74-21.9,36.34-44.66c1.58-22.57-7.67-40.52-27.39-52.61c-20.85-12.79-57.73-7.14-74.63,12.02
		c-12.1,13.71-18.61,29.38-14.82,47.52C271.11,178.82,293.62,195.03,322.7,195.03z"/>
	<path d="M170.64,204.98c-11.67,0.84-24.28-2.5-34.7-9.36c-12.32-8.11-20.83-20.25-23.88-35.45c-6.99-34.79,15.29-62.55,49.91-69.04
		c14.41-2.7,28.85-1.58,41.81,4.64c18.95,9.09,29.48,25.12,31.06,46.33c1.69,22.66-7.44,40.15-26.5,52.31
		C197.34,201.43,185.28,205.4,170.64,204.98z M173.96,93.88c-6.05-0.32-13.25,0.91-20.19,3.3c-20.66,7.13-35.03,20.56-38.45,42.7
		c-3.48,22.55,5.07,40.81,23.88,53.69c15.12,10.35,31.75,10.78,49.15,6.49c33.4-8.24,51.58-39.77,40.7-71.34
		C221.55,106.95,201.38,93.88,173.96,93.88z"/>
	<path class="st1" d="M285.21,242.2c-2.32,0-6.37-1.68-10.21-3.59c-12.52-6.21-24.95-6.19-37.66-0.54
		c-3.44,1.53-7.3,2.43-11.06,2.86c-9.56,1.11-16.51-6.14-15.95-16.21c0.54-9.78,7.81-16.6,15.15-19.08c1.11-0.37,2.01-0.93,3.08,0.3
		c7.06,8.15,16.65,8.13,26.18,7.67c8.09-0.39,15.58-3.12,22.31-7.59c2.29-1.52,4-1.5,6.26-0.19c6.38,3.69,12.5,7.66,16.66,13.96
		c3.01,4.55,3.44,9.48,0.65,14.14C297.71,238.81,293.59,242.36,285.21,242.2z"/>
	<path class="st2" d="M277.06,257.89c0,2.5,0.04,4.99-0.01,7.49c-0.14,7.06-4.67,11.95-10.99,11.93
		c-5.05-0.02-10.69-6.24-11.19-12.01c-0.77-8.84,0.28-17.59,1.04-26.36c0.18-2.1,1.18-1.95,2.6-1.72c5.43,0.87,10.61,2.5,15.59,4.86
		c1.99,0.94,2.49,2.34,2.53,4.34c0.07,3.83,0.33,7.65,0.51,11.47C277.12,257.89,277.09,257.89,277.06,257.89z"/>
	<path class="st2" d="M250.6,241.22c-0.81,8.67-0.66,16.46-0.43,24.26c0.1,3.36-5.02,9.16-9.31,10.42
		c-4.21,1.24-7.47-0.25-9.71-3.94c-4.65-7.68-5.82-16.05-4.6-24.82c0.17-1.21,0.13-2.75,1.99-3c6.13-0.82,11.67-3.56,17.45-5.49
		C249.53,237.47,251.51,237.64,250.6,241.22z"/>
	<path class="st4" d="M322.7,195.03c-29.09,0-51.6-16.21-56.97-41.87c-3.79-18.14,2.72-33.81,14.82-47.52
		c16.9-19.16,53.79-24.81,74.63-12.02c19.72,12.1,28.97,30.05,27.39,52.61c-1.6,22.76-15.57,36.87-36.34,44.66
		C338.43,193.83,330.32,195.47,322.7,195.03z M311.17,145.72c0.05-11.05-7.59-19.66-17.47-19.68c-9.7-0.03-17.74,8.87-17.71,19.62
		c0.03,10.55,7.84,19.27,17.37,19.38C303.36,165.15,311.13,156.73,311.17,145.72z"/>
	<path class="st4" d="M173.96,93.88c27.42,0,47.59,13.08,55.09,34.84c10.88,31.57-7.3,63.1-40.7,71.34
		c-17.39,4.29-34.03,3.86-49.15-6.49c-18.82-12.88-27.37-31.14-23.88-53.69c3.42-22.13,17.79-35.57,38.45-42.7
		C160.72,94.78,167.91,93.56,173.96,93.88z M161.08,150.36c-0.03-10.99-7.66-19.32-17.73-19.35c-9.84-0.03-18.03,8.62-18.18,19.19
		c-0.15,10.61,8.42,19.88,18.28,19.75C153.35,169.83,161.11,161.22,161.08,150.36z"/>
	<path d="M311.17,145.72c-0.05,11.01-7.81,19.43-17.8,19.31c-9.53-0.11-17.35-8.83-17.37-19.38c-0.03-10.74,8.01-19.64,17.71-19.62
		C303.58,126.07,311.22,134.68,311.17,145.72z M297.58,150.13c0.19,2.48,1.17,4.85,4.22,4.79c2.73-0.06,4.02-2.41,4.02-4.79
		c0-2.55-1.17-5.09-4.27-5.01C298.81,145.19,297.78,147.36,297.58,150.13z"/>
	<path d="M161.08,150.36c0.03,10.86-7.73,19.47-17.63,19.6c-9.86,0.13-18.43-9.14-18.28-19.75c0.15-10.57,8.34-19.22,18.18-19.19
		C153.41,131.04,161.05,139.37,161.08,150.36z M151.55,160.01c2.77-0.78,4.39-2.72,4.15-5.38c-0.22-2.46-1.41-4.91-4.66-4.59
		c-2.81,0.28-3.89,2.47-3.87,4.85C147.19,157.57,148.81,159.41,151.55,160.01z"/>
	<path class="st2" d="M297.58,150.13c0.2-2.78,1.23-4.94,3.98-5.01c3.1-0.08,4.27,2.46,4.27,5.01c0,2.38-1.3,4.74-4.02,4.79
		C298.75,154.99,297.77,152.62,297.58,150.13z"/>
	<path class="st2" d="M151.55,160.01c-2.74-0.6-4.36-2.44-4.38-5.12c-0.02-2.38,1.06-4.57,3.87-4.85c3.25-0.32,4.43,2.13,4.66,4.59
		C155.94,157.29,154.32,159.23,151.55,160.01z"/>
</g>
</svg>
