<?xml version="1.0" encoding="UTF-8"?>
<svg xmlns="http://www.w3.org/2000/svg" xmlns:xlink="http://www.w3.org/1999/xlink" viewBox="0 0 48 48" width="48px" height="48px">
<g id="surface23321914">
<path style=" stroke:none;fill-rule:nonzero;fill:rgb(100%,100%,100%);fill-opacity:1;" d="M 19.199219 7.679688 C 12.996094 7.679688 8.03125 12.585938 7.769531 18.71875 C 3.28125 19.945312 0 23.996094 0 28.800781 C 0 34.605469 4.753906 39.359375 10.558594 39.359375 L 39.359375 39.359375 C 44.109375 39.359375 48 35.46875 48 30.71875 C 48 26.976562 45.507812 23.800781 42.148438 22.679688 C 41.949219 17.050781 37.355469 12.480469 31.679688 12.480469 C 30.683594 12.480469 29.753906 12.726562 28.828125 12.988281 C 26.765625 9.851562 23.25 7.679688 19.199219 7.679688 Z M 19.199219 9.601562 C 22.777344 9.601562 25.914062 11.609375 27.570312 14.488281 L 27.988281 15.179688 L 28.738281 14.910156 C 29.699219 14.5625 30.632812 14.398438 31.679688 14.398438 C 36.433594 14.398438 40.320312 18.285156 40.320312 23.039062 L 40.320312 24.089844 L 41.070312 24.269531 C 43.886719 24.933594 46.078125 27.617188 46.078125 30.71875 C 46.078125 34.421875 43.0625 37.441406 39.359375 37.441406 L 10.558594 37.441406 C 5.804688 37.441406 1.921875 33.554688 1.921875 28.800781 C 1.921875 24.644531 4.855469 21.117188 8.820312 20.339844 L 9.601562 20.191406 L 9.601562 19.199219 C 9.601562 13.855469 13.855469 9.601562 19.199219 9.601562 Z M 23.039062 19.199219 L 23.039062 30.300781 L 18.929688 26.191406 L 17.550781 27.570312 L 23.308594 33.328125 L 24 33.988281 L 24.691406 33.328125 L 30.449219 27.570312 L 29.070312 26.191406 L 24.960938 30.300781 L 24.960938 19.199219 Z M 23.039062 19.199219 "/>
</g>
</svg>
