<?xml version="1.0" encoding="UTF-8"?>
<svg xmlns="http://www.w3.org/2000/svg" xmlns:xlink="http://www.w3.org/1999/xlink" viewBox="0 0 46 46" width="46px" height="46px">
<g id="surface56393921">
<path style=" stroke:none;fill-rule:nonzero;fill:rgb(100%,100%,100%);fill-opacity:1;" d="M 4.601562 10.734375 C 4.046875 10.726562 3.53125 11.015625 3.253906 11.492188 C 2.976562 11.972656 2.976562 12.5625 3.253906 13.039062 C 3.53125 13.515625 4.046875 13.808594 4.601562 13.800781 L 41.398438 13.800781 C 41.953125 13.808594 42.46875 13.515625 42.746094 13.039062 C 43.023438 12.5625 43.023438 11.972656 42.746094 11.492188 C 42.46875 11.015625 41.953125 10.726562 41.398438 10.734375 Z M 4.601562 21.464844 C 4.046875 21.457031 3.53125 21.75 3.253906 22.226562 C 2.976562 22.703125 2.976562 23.296875 3.253906 23.773438 C 3.53125 24.25 4.046875 24.542969 4.601562 24.535156 L 41.398438 24.535156 C 41.953125 24.542969 42.46875 24.25 42.746094 23.773438 C 43.023438 23.296875 43.023438 22.703125 42.746094 22.226562 C 42.46875 21.75 41.953125 21.457031 41.398438 21.464844 Z M 4.601562 32.199219 C 4.046875 32.191406 3.53125 32.484375 3.253906 32.960938 C 2.976562 33.4375 2.976562 34.027344 3.253906 34.507812 C 3.53125 34.984375 4.046875 35.273438 4.601562 35.265625 L 41.398438 35.265625 C 41.953125 35.273438 42.46875 34.984375 42.746094 34.507812 C 43.023438 34.027344 43.023438 33.4375 42.746094 32.960938 C 42.46875 32.484375 41.953125 32.191406 41.398438 32.199219 Z M 4.601562 32.199219 "/>
</g>
</svg>
