<?xml version="1.0" encoding="utf-8"?>
<!-- Generator: Adobe Illustrator 26.3.1, SVG Export Plug-In . SVG Version: 6.00 Build 0)  -->
<svg version="1.1" id="Capa_1" xmlns="http://www.w3.org/2000/svg" xmlns:xlink="http://www.w3.org/1999/xlink" x="0px" y="0px"
	 viewBox="0 0 1280 1024" style="enable-background:new 0 0 1280 1024;" xml:space="preserve">
<style type="text/css">
	.st0{fill:#FFFFFF;}
</style>
<g>
	<path class="st0" d="M972.45,757.5c-135.4,0-245.55-110.15-245.55-245.55S837.06,266.4,972.45,266.4S1218,376.55,1218,511.95
		S1107.85,757.5,972.45,757.5z M972.45,278.38c-128.79,0-233.57,104.78-233.57,233.57s104.78,233.57,233.57,233.57
		s233.57-104.78,233.57-233.57S1101.24,278.38,972.45,278.38z"/>
</g>
<g>
	<path class="st0" d="M304.59,757.5c-135.4,0-245.55-110.15-245.55-245.55c0-39.9,10.06-69.32,30.74-89.92
		c40.36-40.19,113.67-39.88,198.54-39.55l23.53,0.06l23.52-0.06c79-0.35,147.07-0.6,184.25,36.43
		c20.53,20.44,30.51,50.87,30.51,93.04C550.14,647.34,439.98,757.5,304.59,757.5z M265.43,394.4c-72.41,0-133.83,2.88-167.2,36.12
		c-18.31,18.24-27.21,44.87-27.21,81.43c0,128.79,104.78,233.57,233.57,233.57s233.57-104.78,233.57-233.57
		c0-38.82-8.82-66.48-26.97-84.55c-33.65-33.51-96.41-33.24-175.75-32.93l-23.58,0.06l-23.59-0.06
		C280.55,394.43,272.93,394.4,265.43,394.4z"/>
</g>
<g>
	<path class="st0" d="M514.03,420.68l-10.14-6.37c2.32-3.68,57.39-89.95,131.69-89.95c0.22,0,0.44,0,0.68,0
		c43.7,0.31,84.2,30.6,120.35,90.03l-10.22,6.22c-33.85-55.62-70.92-83.97-110.18-84.27c-0.21,0-0.42,0-0.62,0
		C567.91,336.33,514.57,419.83,514.03,420.68z"/>
</g>
<g>
	<path class="st0" d="M430.63,573.83c-38.53-46.88-79.38-70.07-120.95-68.74c-67.45,2.04-115.91,67.79-116.39,68.46l-9.71-7.02
		c2.11-2.91,52.29-71.14,125.65-73.41c46.11-1.23,89.61,23.19,130.66,73.11L430.63,573.83z"/>
</g>
<g>
	<path class="st0" d="M1098.49,573.83c-38.53-46.88-79.49-70.07-120.95-68.74c-67.45,2.04-115.91,67.79-116.39,68.46l-9.71-7.02
		c2.11-2.91,52.29-71.14,125.65-73.41c46.04-1.23,89.61,23.19,130.66,73.11L1098.49,573.83z"/>
</g>
<g>
</g>
<g>
</g>
<g>
</g>
<g>
</g>
<g>
</g>
<g>
</g>
<g>
</g>
<g>
</g>
<g>
</g>
<g>
</g>
<g>
</g>
<g>
</g>
<g>
</g>
<g>
</g>
<g>
</g>
</svg>
