<?xml version="1.0" encoding="utf-8"?>
<!-- Generator: Adobe Illustrator 26.3.1, SVG Export Plug-In . SVG Version: 6.00 Build 0)  -->
<svg version="1.1" id="Capa_1" xmlns="http://www.w3.org/2000/svg" xmlns:xlink="http://www.w3.org/1999/xlink" x="0px" y="0px"
	 viewBox="0 0 1280 1024" style="enable-background:new 0 0 1280 1024;" xml:space="preserve">
<style type="text/css">
	.st0{fill:#FFFFFF;}
</style>
<g>
	<g>
		<path class="st0" d="M152.04,643.98c17.29,0.1,30.74,4.97,40.34,14.62c10.28,10.37,15.42,22.76,15.42,37.17
			c0,14.55-5.24,27.09-15.7,37.6c-9.41,9.41-22.76,14.17-40.05,14.26h-21.9V643.98H152.04z M143.18,655.5v80.68h8.79
			c12.87,0,22.98-3.55,30.33-10.66c8.12-8.12,12.17-18.03,12.17-29.75c0-11.62-4.06-21.54-12.17-29.75
			c-7.35-7.01-17.46-10.52-30.33-10.52H143.18z"/>
		<path class="st0" d="M240,643.98v103.67h-13.04V643.98H240z"/>
		<path class="st0" d="M319.16,643.98v11.31h-43.37v34.87h43.37v11.31h-43.37v34.87h43.37v11.31h-56.41V643.98H319.16z"/>
		<path class="st0" d="M429.3,733.52c-10.61,10.18-22.96,15.27-37.03,15.27c-15.08,0-27.82-5.2-38.22-15.6
			c-10.4-10.4-15.6-22.87-15.6-37.42c0-14.41,5.2-26.85,15.6-37.32c10.4-10.47,23.14-15.71,38.22-15.71
			c14.02,0,26.87,5.33,38.54,15.99l-9.08,8.07c-9.51-8.4-19.33-12.61-29.46-12.61c-11.05,0-20.59,4.02-28.64,12.07
			c-8.04,8.04-12.07,17.88-12.07,29.5c0,11.72,4.02,21.59,12.07,29.61c8.04,8.02,17.59,12.03,28.64,12.03
			c9.46,0,17.48-2.64,24.06-7.92v-31.55h12.97V733.52z"/>
		<path class="st0" d="M538.76,658.24c10.45,10.47,15.67,22.93,15.67,37.39c0,14.55-5.22,27.05-15.67,37.5
			c-10.45,10.45-23.21,15.67-38.29,15.67c-15.03,0-27.77-5.22-38.22-15.67c-10.45-10.45-15.67-22.95-15.67-37.5
			c0-14.46,5.22-26.92,15.67-37.39c10.45-10.47,23.18-15.7,38.22-15.7C515.55,642.54,528.32,647.77,538.76,658.24z M500.47,653.92
			c-11.05,0-20.6,4.05-28.67,12.14c-8.07,8.09-12.1,17.95-12.1,29.57c0,11.72,4.03,21.61,12.1,29.68s17.63,12.1,28.67,12.1
			c11.09,0,20.68-4.03,28.74-12.1s12.1-17.96,12.1-29.68c0-11.62-4.03-21.48-12.1-29.57C521.15,657.96,511.57,653.92,500.47,653.92z
			"/>
		<path class="st0" d="M703.94,658.24c10.45,10.47,15.67,22.93,15.67,37.39c0,14.55-5.22,27.05-15.67,37.5
			c-10.45,10.45-23.21,15.67-38.29,15.67c-15.03,0-27.77-5.22-38.22-15.67c-10.45-10.45-15.67-22.95-15.67-37.5
			c0-14.46,5.22-26.92,15.67-37.39c10.45-10.47,23.18-15.7,38.22-15.7C680.73,642.54,693.49,647.77,703.94,658.24z M665.65,653.92
			c-11.05,0-20.6,4.05-28.67,12.14c-8.07,8.09-12.1,17.95-12.1,29.57c0,11.72,4.03,21.61,12.1,29.68s17.63,12.1,28.67,12.1
			c11.09,0,20.68-4.03,28.74-12.1s12.1-17.96,12.1-29.68c0-11.62-4.03-21.48-12.1-29.57C686.32,657.96,676.74,653.92,665.65,653.92z
			"/>
		<path class="st0" d="M799.85,643.98h13.62l-37.25,103.67h-9.08l-37.17-103.67h13.54l28.24,79.82L799.85,643.98z"/>
		<path class="st0" d="M841.13,643.98v103.67h-13.04V643.98H841.13z"/>
		<path class="st0" d="M920.29,643.98v11.31h-43.37v34.87h43.37v11.31h-43.37v34.87h43.37v11.31h-56.41V643.98H920.29z"/>
		<path class="st0" d="M964.23,643.98c17.29,0.1,30.74,4.97,40.34,14.62c10.28,10.37,15.42,22.76,15.42,37.17
			c0,14.55-5.24,27.09-15.7,37.6c-9.41,9.41-22.76,14.17-40.05,14.26h-21.9V643.98H964.23z M955.37,655.5v80.68h8.79
			c12.87,0,22.98-3.55,30.33-10.66c8.12-8.12,12.17-18.03,12.17-29.75c0-11.62-4.06-21.54-12.17-29.75
			c-7.35-7.01-17.46-10.52-30.33-10.52H955.37z"/>
		<path class="st0" d="M1127,658.24c10.45,10.47,15.67,22.93,15.67,37.39c0,14.55-5.22,27.05-15.67,37.5
			c-10.45,10.45-23.21,15.67-38.29,15.67c-15.03,0-27.77-5.22-38.22-15.67c-10.45-10.45-15.67-22.95-15.67-37.5
			c0-14.46,5.22-26.92,15.67-37.39c10.45-10.47,23.18-15.7,38.22-15.7C1103.79,642.54,1116.55,647.77,1127,658.24z M1088.71,653.92
			c-11.05,0-20.6,4.05-28.67,12.14c-8.07,8.09-12.1,17.95-12.1,29.57c0,11.72,4.04,21.61,12.1,29.68s17.62,12.1,28.67,12.1
			c11.09,0,20.68-4.03,28.74-12.1s12.1-17.96,12.1-29.68c0-11.62-4.03-21.48-12.1-29.57
			C1109.38,657.96,1099.8,653.92,1088.71,653.92z"/>
	</g>
</g>
<g>
	<g>
		<path class="st0" d="M294.42,801.29c2.3,0.97,4.41,2.44,6.33,4.38c3.98,3.98,5.98,8.81,5.98,14.48c0,5.64-1.99,10.45-5.98,14.43
			c-3.34,3.33-7.39,5.33-12.18,5.98h-20.32v-62.6h18.68c3.57,0,6.6,1.25,9.1,3.76c2.49,2.51,3.74,5.53,3.74,9.08
			s-1.25,6.57-3.76,9.08C295.48,800.43,294.95,800.9,294.42,801.29z M271.79,781.45v18.24h15.94c2.57-0.27,4.49-1.03,5.76-2.3
			c1.8-1.8,2.7-4,2.7-6.6c0-2.57-0.91-4.77-2.72-6.6c-1.81-1.83-4.01-2.75-6.57-2.75H271.79z M286.27,837.01
			c4.63,0,8.59-1.64,11.87-4.94c3.28-3.29,4.91-7.27,4.91-11.93c0-4.66-1.64-8.65-4.91-11.95s-7.23-4.96-11.87-4.96h-14.48v33.78
			H286.27z"/>
		<path class="st0" d="M358.39,840.56h-3.54v-7.84c-0.68,0.92-1.42,1.79-2.21,2.61c-4.19,4.22-9.27,6.33-15.23,6.33
			c-5.9,0-10.96-2.1-15.16-6.31c-4.21-4.21-6.31-9.26-6.31-15.16c0-5.96,2.1-11.04,6.31-15.23c4.21-4.19,9.26-6.29,15.16-6.29
			c5.96,0,11.04,2.1,15.23,6.29c0.8,0.83,1.53,1.7,2.21,2.61v-5.45h3.54V840.56z M354.84,823.64v-6.95
			c-0.65-3.45-2.27-6.48-4.87-9.08c-3.48-3.48-7.67-5.22-12.57-5.22c-4.9,0-9.08,1.74-12.55,5.22c-3.47,3.48-5.2,7.67-5.2,12.57
			s1.73,9.08,5.2,12.53c3.47,3.45,7.65,5.18,12.55,5.18c4.9,0,9.09-1.74,12.57-5.22C352.57,830.08,354.19,827.07,354.84,823.64z"/>
		<path class="st0" d="M403.54,831.3l3.72,1.37c-0.68,0.92-1.45,1.8-2.3,2.66c-4.19,4.22-9.27,6.33-15.23,6.33
			c-5.9,0-10.96-2.1-15.16-6.31c-4.21-4.21-6.31-9.28-6.31-15.21s2.1-10.99,6.31-15.19c4.21-4.19,9.26-6.29,15.16-6.29
			c5.96,0,11.04,2.1,15.23,6.29c0.86,0.86,1.62,1.74,2.3,2.66l-3.72,1.37c-0.38-0.47-0.8-0.94-1.24-1.42
			c-3.48-3.45-7.67-5.18-12.57-5.18c-4.87,0-9.04,1.73-12.51,5.2c-3.47,3.47-5.2,7.65-5.2,12.55c0,4.9,1.73,9.08,5.2,12.55
			c3.47,3.47,7.64,5.2,12.51,5.2c4.9,0,9.09-1.74,12.57-5.22C402.74,832.23,403.16,831.78,403.54,831.3z"/>
		<path class="st0" d="M436.3,802.13l-9.47,11.73l15.1,26.7h-4.34l-13.06-23.86l-3.41,4.25v19.61h-3.54v-54.77h3.54v29.53
			l10.67-13.19H436.3z"/>
		<path class="st0" d="M449.49,818.2c-0.09,0.62-0.13,1.28-0.13,1.99c0,4.9,1.73,9.08,5.2,12.53c3.47,3.45,7.65,5.18,12.55,5.18
			s9.09-1.74,12.57-5.22c0.59-0.59,1.15-1.21,1.68-1.86l3.76,1.33c-0.44,0.74-1.37,1.8-2.79,3.19c-4.19,4.22-9.27,6.33-15.23,6.33
			c-5.9,0-10.96-2.1-15.16-6.31c-4.21-4.21-6.31-9.26-6.31-15.16c0-5.96,2.1-11.04,6.31-15.23c4.21-4.19,9.26-6.29,15.16-6.29
			c5.96,0,11.04,2.1,15.23,6.29c3.69,3.72,5.53,8.13,5.53,13.24H449.49z M450.15,814.61h33.74c-0.83-2.68-2.23-5.02-4.21-7
			c-3.48-3.48-7.67-5.22-12.57-5.22s-9.09,1.74-12.57,5.22C452.47,809.71,451.01,812.04,450.15,814.61z"/>
		<path class="st0" d="M501.02,810.72v29.84h-3.54v-38.43h3.54v2.48c3.19-3.19,6.91-4.78,11.16-4.78c4.54,0,8.24,1.42,11.09,4.27
			c2.85,2.85,4.3,6.43,4.36,10.74v25.72h-3.5v-25.37c0-3.28-1.18-6.07-3.54-8.37c-2.36-2.3-5.17-3.45-8.41-3.45
			c-3.22,0-6.01,1.14-8.37,3.41C502.54,808.05,501.61,809.36,501.02,810.72z"/>
		<path class="st0" d="M581.37,840.56h-3.54v-7.84c-0.68,0.92-1.42,1.79-2.21,2.61c-4.19,4.22-9.27,6.33-15.23,6.33
			c-5.9,0-10.96-2.1-15.16-6.31c-4.21-4.21-6.31-9.26-6.31-15.16c0-5.96,2.1-11.04,6.31-15.23c4.21-4.19,9.26-6.29,15.16-6.29
			c5.96,0,11.04,2.1,15.23,6.29c0.8,0.83,1.53,1.7,2.21,2.61v-29.62h3.54V840.56z M577.83,823.64v-6.95
			c-0.65-3.45-2.27-6.48-4.87-9.08c-3.48-3.48-7.67-5.22-12.57-5.22c-4.9,0-9.08,1.74-12.55,5.22c-3.47,3.48-5.2,7.67-5.2,12.57
			s1.73,9.08,5.2,12.53c3.47,3.45,7.65,5.18,12.55,5.18c4.9,0,9.09-1.74,12.57-5.22C575.56,830.08,577.18,827.07,577.83,823.64z"/>
		<path class="st0" d="M631.61,777.96c10.3,0.06,18.29,2.94,23.95,8.63c6.26,6.29,9.39,13.84,9.39,22.67
			c0,8.88-3.13,16.46-9.39,22.71c-5.67,5.67-13.65,8.53-23.95,8.59h-11.6v-62.6H631.61z M623.56,781.63v55.3h8.01
			c9,0,16.1-2.51,21.29-7.53c5.55-5.55,8.32-12.26,8.32-20.14c0-7.85-2.78-14.57-8.32-20.14c-5.19-4.99-12.29-7.48-21.29-7.48
			H623.56z"/>
		<path class="st0" d="M677.48,818.2c-0.09,0.62-0.13,1.28-0.13,1.99c0,4.9,1.73,9.08,5.2,12.53c3.47,3.45,7.65,5.18,12.55,5.18
			s9.09-1.74,12.57-5.22c0.59-0.59,1.15-1.21,1.68-1.86l3.76,1.33c-0.44,0.74-1.37,1.8-2.79,3.19c-4.19,4.22-9.27,6.33-15.23,6.33
			c-5.9,0-10.96-2.1-15.16-6.31s-6.31-9.26-6.31-15.16c0-5.96,2.1-11.04,6.31-15.23c4.21-4.19,9.26-6.29,15.16-6.29
			c5.96,0,11.04,2.1,15.23,6.29c3.69,3.72,5.53,8.13,5.53,13.24H677.48z M678.14,814.61h33.74c-0.83-2.68-2.23-5.02-4.21-7
			c-3.48-3.48-7.67-5.22-12.57-5.22s-9.09,1.74-12.57,5.22C680.46,809.71,679,812.04,678.14,814.61z"/>
		<path class="st0" d="M757.12,802.13l-17.18,38.43h-1.86l-17-38.43h4.12l13.81,32.01L753,802.13H757.12z"/>
		<path class="st0" d="M766.9,818.2c-0.09,0.62-0.13,1.28-0.13,1.99c0,4.9,1.73,9.08,5.2,12.53c3.47,3.45,7.65,5.18,12.55,5.18
			s9.09-1.74,12.57-5.22c0.59-0.59,1.15-1.21,1.68-1.86l3.76,1.33c-0.44,0.74-1.37,1.8-2.79,3.19c-4.19,4.22-9.27,6.33-15.23,6.33
			c-5.9,0-10.96-2.1-15.16-6.31s-6.31-9.26-6.31-15.16c0-5.96,2.1-11.04,6.31-15.23c4.21-4.19,9.26-6.29,15.16-6.29
			c5.96,0,11.04,2.1,15.23,6.29c3.69,3.72,5.53,8.13,5.53,13.24H766.9z M767.57,814.61h33.74c-0.83-2.68-2.23-5.02-4.21-7
			c-3.48-3.48-7.67-5.22-12.57-5.22s-9.09,1.74-12.57,5.22C769.88,809.71,768.42,812.04,767.57,814.61z"/>
		<path class="st0" d="M818.92,777.96v62.6h-3.54v-62.6H818.92z"/>
		<path class="st0" d="M852.08,798.67c5.96,0,11.03,2.1,15.21,6.29c4.18,4.19,6.26,9.27,6.26,15.23c0,5.9-2.09,10.96-6.26,15.16
			c-4.18,4.21-9.25,6.31-15.21,6.31c-5.9,0-10.96-2.1-15.16-6.31c-4.21-4.21-6.31-9.26-6.31-15.16c0-5.96,2.1-11.04,6.31-15.23
			C841.12,800.77,846.17,798.67,852.08,798.67z M839.52,807.62c-3.47,3.48-5.2,7.67-5.2,12.57s1.73,9.08,5.2,12.53
			c3.47,3.45,7.65,5.18,12.55,5.18c4.9,0,9.08-1.73,12.55-5.18c3.47-3.45,5.2-7.63,5.2-12.53s-1.73-9.09-5.2-12.57
			c-3.47-3.48-7.65-5.22-12.55-5.22C847.17,802.39,842.99,804.14,839.52,807.62z"/>
		<path class="st0" d="M884.43,802.13h3.54v5.4c0.65-0.89,1.39-1.74,2.21-2.57c4.19-4.16,9.25-6.24,15.19-6.24
			c5.93,0,10.99,2.09,15.19,6.26c4.19,4.18,6.29,9.25,6.29,15.21c0,5.9-2.1,10.96-6.29,15.16c-4.19,4.21-9.25,6.31-15.19,6.31
			c-5.93,0-11-2.11-15.19-6.33c-0.83-0.83-1.56-1.68-2.21-2.57v22.45h-3.54V802.13z M887.98,816.52v7.35
			c0.65,3.36,2.26,6.32,4.83,8.85c3.48,3.48,7.67,5.22,12.57,5.22c4.9,0,9.08-1.73,12.55-5.2c3.47-3.47,5.2-7.65,5.2-12.55
			s-1.73-9.09-5.2-12.57c-3.47-3.48-7.65-5.22-12.55-5.22c-4.9,0-9.09,1.74-12.57,5.22C890.23,810.19,888.63,813.15,887.98,816.52z"
			/>
		<path class="st0" d="M939.29,818.2c-0.09,0.62-0.13,1.28-0.13,1.99c0,4.9,1.73,9.08,5.2,12.53c3.47,3.45,7.65,5.18,12.55,5.18
			s9.09-1.74,12.57-5.22c0.59-0.59,1.15-1.21,1.68-1.86l3.76,1.33c-0.44,0.74-1.37,1.8-2.79,3.19c-4.19,4.22-9.27,6.33-15.23,6.33
			c-5.9,0-10.96-2.1-15.16-6.31s-6.31-9.26-6.31-15.16c0-5.96,2.1-11.04,6.31-15.23c4.21-4.19,9.26-6.29,15.16-6.29
			c5.96,0,11.04,2.1,15.23,6.29c3.69,3.72,5.53,8.13,5.53,13.24H939.29z M939.95,814.61h33.74c-0.83-2.68-2.23-5.02-4.21-7
			c-3.48-3.48-7.67-5.22-12.57-5.22s-9.09,1.74-12.57,5.22C942.27,809.71,940.8,812.04,939.95,814.61z"/>
		<path class="st0" d="M1000.87,805.23c-2.51,0.38-4.97,1.98-7.39,4.78s-3.63,5.64-3.63,8.5v22.05h-3.54v-38.43h3.54v8.32
			c1.48-3.87,4.5-6.74,9.08-8.63L1000.87,805.23z"/>
	</g>
</g>
<g>
	<path class="st0" d="M906.44,557.78c-104.12,0-188.83-84.71-188.83-188.83s84.71-188.83,188.83-188.83s188.83,84.71,188.83,188.83
		S1010.56,557.78,906.44,557.78z M906.44,189.33c-99.04,0-179.62,80.58-179.62,179.62s80.58,179.62,179.62,179.62
		s179.62-80.58,179.62-179.62S1005.48,189.33,906.44,189.33z"/>
</g>
<g>
	<path class="st0" d="M392.84,557.78c-104.12,0-188.83-84.71-188.83-188.83c0-30.69,7.74-53.31,23.64-69.15
		c31.03-30.91,87.42-30.67,152.68-30.41l18.1,0.05l18.09-0.05c60.75-0.27,113.1-0.46,141.69,28.01
		c15.79,15.72,23.46,39.12,23.46,71.55C581.67,473.07,496.96,557.78,392.84,557.78z M362.72,278.55
		c-55.68,0-102.92,2.22-128.58,27.78c-14.08,14.02-20.92,34.51-20.92,62.62c0,99.04,80.58,179.62,179.62,179.62
		s179.62-80.58,179.62-179.62c0-29.85-6.78-51.12-20.74-65.02c-25.88-25.77-74.14-25.56-135.16-25.33l-18.13,0.05l-18.14-0.05
		C374.35,278.58,368.49,278.55,362.72,278.55z"/>
</g>
<g>
	<path class="st0" d="M553.9,298.76l-7.8-4.9c1.78-2.83,44.13-69.17,101.27-69.17c0.17,0,0.34,0,0.52,0
		c33.61,0.24,64.75,23.53,92.55,69.23l-7.86,4.79c-26.03-42.77-54.54-64.58-84.73-64.81c-0.16,0-0.32,0-0.48,0
		C595.33,233.89,554.31,298.11,553.9,298.76z"/>
</g>
<g>
	<path class="st0" d="M489.76,416.53c-29.63-36.05-61.04-53.89-93.01-52.87c-51.87,1.57-89.14,52.13-89.5,52.65l-7.47-5.4
		c1.62-2.24,40.21-54.71,96.63-56.45c35.46-0.94,68.91,17.83,100.48,56.23L489.76,416.53z"/>
</g>
<g>
	<path class="st0" d="M1003.36,416.53c-29.63-36.05-61.13-53.89-93.01-52.87c-51.87,1.57-89.14,52.13-89.5,52.65l-7.47-5.4
		c1.62-2.24,40.21-54.71,96.63-56.45c35.41-0.94,68.91,17.83,100.48,56.23L1003.36,416.53z"/>
</g>
<g>
</g>
<g>
</g>
<g>
</g>
<g>
</g>
<g>
</g>
<g>
</g>
<g>
</g>
<g>
</g>
<g>
</g>
<g>
</g>
<g>
</g>
<g>
</g>
<g>
</g>
<g>
</g>
<g>
</g>
<g>
</g>
</svg>
