<?xml version="1.0" encoding="utf-8"?>
<!-- Generator: Adobe Illustrator 26.3.1, SVG Export Plug-In . SVG Version: 6.00 Build 0)  -->
<svg version="1.1" id="Capa_1" xmlns="http://www.w3.org/2000/svg" xmlns:xlink="http://www.w3.org/1999/xlink" x="0px" y="0px"
	 viewBox="0 0 480 480" style="enable-background:new 0 0 480 480;" xml:space="preserve">
<style type="text/css">
	.st0{fill:none;stroke:#FFFFFF;stroke-width:2;stroke-miterlimit:10;}
	.st1{fill:none;stroke:#FFFFFF;stroke-miterlimit:10;}
	.st2{fill:none;stroke:#FFFFFF;stroke-width:4;stroke-miterlimit:10;}
	.st3{fill:#FFFFFF;}
</style>
<path class="st0" d="M323.32,238.47"/>
<path class="st1" d="M268.64,233.82"/>
<g>
	<path class="st0" d="M270.27,232.66c0,0,8.07,0.14,13.58,3.19c0,0,11.48,8,30.16-2.03"/>
	<g>
		<g>
			<path class="st0" d="M267.94,234.22c0,0,19.05-16.81,55.01,4.25"/>
			<path class="st0" d="M281.66,228.68c0,0-2.57,2.47-0.01,6.16"/>
			<path class="st0" d="M301.2,229.37c0,0,5.54,5.5,0.35,9.1"/>
			<path class="st0" d="M265.13,229.33c0,0,10.03-12.48,29.36-2.45c0,0,2.81,2.73,11.13,1.55c0,0,15.49-1.18,21.2,9.34"/>
		</g>
		<path class="st0" d="M270.76,242.71c0,0,8.26,3.1,11.27,6.03"/>
		<path class="st0" d="M285.6,250.38c0,0,2.12,1.96,3.59,1.88"/>
		<line class="st0" x1="292.29" y1="253.48" x2="294.9" y2="253.48"/>
		<path class="st0" d="M310.47,252.66c0,0,5.38-2.37,6.2-4.24"/>
		<path class="st0" d="M320.26,243.61c0,0-0.65,2.37-1.55,3.18"/>
	</g>
</g>
<g>
	<path class="st0" d="M201.72,229.27c0,0-14.57-4.67-20.38-2.12c0,0-10.76,4.85-26.6-1.97c0,0-2.97-1.8-13.53,0"/>
	<g>
		<g>
			<path class="st0" d="M201.72,229.27c0,0-24.27-24.69-62.88-3.13"/>
			<path class="st0" d="M182.2,218.82c0,0,4.3,4.15,1.44,7.52"/>
			<path class="st0" d="M161.11,218.05c0,0-3.72,5.84,1.3,9.68"/>
		</g>
		<path class="st0" d="M194.18,234.71c0,0-11.42,5-16.8,6.45"/>
		<path class="st0" d="M156.58,239.71c0,0-11.5-5.12-12.2-6.99"/>
	</g>
</g>
<path class="st0" d="M137.01,221.4c0,0,9.79-4.7,16.76-5.92c0,0,18.09-0.49,28.44-1.35l6.67,0.49"/>
<path class="st0" d="M192.65,216.05c0,0,5.72,3.44,8.13,7.25"/>
<path class="st0" d="M238.14,186.17c0,0-3.26,7.86,0,14.22"/>
<path class="st0" d="M248.58,212.63c0,0,5.38,5.86,12.72,6.19"/>
<line class="st0" x1="237.41" y1="209.91" x2="238.14" y2="214.13"/>
<path class="st0" d="M207.96,212.55c0,0,11.43,0.45,14.19-4.44"/>
<line class="st2" x1="341.24" y1="411.54" x2="470" y2="462.29"/>
<line class="st2" x1="104" y1="402.61" x2="4.4" y2="462.78"/>
<path class="st3" d="M365.91,217.7c-0.79,0.18-1.75,1.06-2.33-0.07c-0.3-0.57-0.27-1.63,0.07-2.18c4.23-6.68,4.11-14.14,4.36-21.65
	c0.15-4.5-1.56-9.11,2.84-13.49c2.46-2.46,2.53-8.2,2.49-12.1c-0.17-18.55-5.41-36.19-11.6-53.54c-0.43-1.22-1.14-2.4,0.18-3.43
	c4.86-3.78,4.51-10.03,7.02-14.92c0.4-0.78,0.03-1.98-0.08-2.98c-0.45-4.18-2.35-7.72-4.9-10.96c-0.98-1.25-1.68-2.34-0.87-4.09
	c2.4-5.2-1.79-10.32-0.41-15.59c0.15-0.58-0.7-1.91-1.36-2.15c-3.92-1.46-4.62-5.42-6.77-8.25c-1.69-2.22-3.66-4.24-6.28-5.41
	c-0.96-0.43-1.79-0.92-2.32-1.85c-1.96-3.43-5.23-4.83-8.87-5.05c-2.81-0.17-4.58-1.38-6.36-3.43c-4.49-5.17-10.44-7.55-17.19-7.37
	c-2.53,0.07-3.43-0.08-3.67-2.91c-0.59-6.7-6.6-14.18-11.77-13.58c-4.72,0.55-8.54-1.14-12.74-2.07c-1.34-0.3-2.87-0.67-4.12-0.32
	c-4.4,1.25-8.2,0.09-11.82-2.33h-4.57c-2.24,1.14-4.68,3.5-6.66,3.16c-4.03-0.7-8.34,0.14-11.96-1.14
	c-6.58-2.33-12.13-1.26-17.6,2.44c-1,0.67-2.09,0.9-3.22,0.25c-6.82-3.92-12.72-1.24-18.27,2.8c-1.48,1.08-2.64,1.52-4.45,1.1
	c-3.29-0.75-6.42-0.48-7.99,3.2c-0.73,1.7-2.05,1.07-3.24,1.02c-5.68-0.24-10.36,1.93-14.32,5.87c-0.88,0.87-1.4,2.26-2.85,2.34
	c-4.39,0.23-8.12,1.75-11.04,5.15c-0.32,0.37-1.15,0.44-1.74,0.43c-8.63-0.22-14.93,4.25-20.18,10.4c-2.31,2.71-5.57,5.12-5.3,9.32
	c0.16,2.44-0.58,3.75-3.17,4.13c-1.25,0.19-3.62,0.66-1.92,2.84c1.2,1.55,0.54,2.54-0.2,3.72c-0.89,1.42-2.24,1.52-3.69,1.12
	c-1.34-0.37-2.67-0.78-4.01-1.18c-1.81-0.53-2.38,0.33-2.07,1.95c0.16,0.86,0.56,1.68,0.9,2.49c1.58,3.81,1.09,6.95-1.07,10.8
	c-2.13,3.81-9.37,2.91-7.97,9.3c-2.98,3.3-5.2,7.01-6.79,11.2c-2.16,5.67-3.74,11.6-6.92,16.85c-0.38,0.63-0.81,1.44-0.73,2.11
	c1,8.59-2.46,16.74-2.46,25.22c0,7.09-1.83,14.13-0.69,21.22c1.33,8.26,1.93,16.6,2.61,24.92c0.57,6.96,0.4,6.97-5.79,4.24
	c-6.23-2.75-9.49-1.13-10.96,5.55c-1.41,6.43-0.24,12.74,2.09,18.63c4.93,12.49,8.17,25.24,7.99,38.76
	c-0.03,2.11,0.47,4.16,0.27,6.38c-0.51,5.88-2.91,11.3-3.69,17.05c-1.47,10.77,1.89,21.11,13.33,24.01
	c1.76,0.45,2.03,1.47,2.31,2.93c1.97,10.3,3.26,20.73,5.9,30.92c3.79,14.59,6.65,29.46,14.54,42.64c0.32,0.53,0.51,1.16,0.63,1.77
	c0.7,3.7,0.13,4.26-3.58,3.57c-8.61-1.61-15.1,2.65-16.59,11.25c-0.07,0.41-0.17,0.77-0.27,1.11c0,0.07,0.01,0.13,0.01,0.2
	c0,1.77-0.04,3.53-0.15,5.29c0.65,0.38,1.07,1.31,1.42,2.93c0.6,2.75,1.19,5.74,3.69,7.72c-0.63-3.48-1.95-6.74-2.65-10.13
	c-2.62-12.68,5.15-17.67,13.7-16.59c2.36,0.3,3.2,0.89,1.38,3.18c-3.23,4.06-5.33,8.65-4.91,14.01c0.62,7.69,1.39,15.37,2.04,23.05
	c0.57,6.72,3.05,12.49,8.09,17.08c1.78,1.62,3.5,3.3,5.22,4.99c11.31,11.05,25.34,16.96,40.56,19.07c8.75,1.21,17.4,3.1,26.2,3.93
	h24.36c10.72-1.82,21.62-2.21,32.31-4.29c31.18-6.09,55.01-22.28,70.3-50.47c3.23-5.95,4.62-11.79-0.23-17.82
	c12.19-0.17,13.95,8.44,14.77,18.01c1.31-1.99,1.26-3.92,0.91-5.67c-0.3-1.48-0.26-2.36,0.15-2.8c-0.85-1.37-1.6-2.86-2.24-4.48
	c-0.17-0.2-0.34-0.42-0.49-0.66c-3.89-6.25-9.34-8.24-16.31-5.56c-2.12,0.81-3.61,0.06-4.95-1.63c-2.29-2.87-2.42-5.46-0.08-8.55
	c12.78-16.89,21.57-35.75,27.2-56.11c1.24-4.49,2.13-8.46,7.82-10.23c5.57-1.74,7.53-8.83,6.3-16.4c-0.75-4.63-2.67-9.01-2.82-13.74
	c-0.38-12.25,2.52-24.05,8.99-34.1c7.4-11.5,6.22-24.3,8.36-36.6C373.76,219.27,370.05,216.75,365.91,217.7z M371.27,161.63
	c0.13,1.73,0.83,3.73-1.41,5.08c-0.98,0.58,0.17,1.83,0.24,2.79c0.27,3.67,1.6,7.53-2.35,10.39c-1.58,1.14-1.1,3.26-1.12,5.02
	c-0.08,7.84,0.59,15.75-1.7,23.41c-0.4,1.33-0.05,3.47-2.66,3.35c-0.82-0.04-0.91,1.14-0.72,1.89c1.3,5.03-1.32,8.39-4.94,11.54
	c-1.54-4.76-1.31-9.64-0.73-14.3c2.29-18.49,1.16-36.92-0.04-55.38c-0.44-6.83-1.06-13.61-2.2-20.36
	c-2.05-12.22-8.38-22.09-16.57-30.99c-3.42-3.71-6.62-7.54-7.66-12.74c4.25,4.61,10.39,6.73,14.25,12.03
	c2.79,3.83,8.25,4.57,12.32,7.04c1.27,0.77,2.68,1.03,3.32,2.75C365.24,128.83,370,144.8,371.27,161.63z M363.75,96.27
	c1.86-3.61,1.1-7.12-0.31-10.68c4.26,3.95,5.19,11.24,1.98,15.18c-3.88,4.78-13.25,5.98-19.21,2.07c2.69,0.19,4.85,0.41,7.02,0.47
	c2.14,0.06,4.24-0.14,5.66-2.47c-4.32,0.6-8.58,1.22-13.36-1.16c4.47-0.28,8.25-0.56,11.28-3.07c3.14-2.61,4.37-6.12,4.24-11.12
	C363.64,89.32,363.67,92.77,363.75,96.27z M357.31,60.48c-0.05-0.45,0.58-0.47,0.73-0.1c0.08-0.03,0.17-0.04,0.24-0.02
	c0.09,0.02,0.19,0.09,0.23,0.17c0.1,0.2,0.22,0.38,0.33,0.57c0.1,0.01,0.21,0.06,0.28,0.16c0.02,0.02,0.03,0.04,0.04,0.07
	c0.37,0.01,0.75,0.04,1.1,0.14c0.6,0.18,1.05,0.59,1.2,1.21c0.16,0.69,0.04,1.43-0.07,2.12c0.16,0.45,0.25,0.92,0.3,1.39
	c0.08,0.75,0.06,1.51,0.05,2.26c0.14,0.97,0.23,1.95,0.29,2.95c0.07,1.08,0.12,2.16,0.06,3.24c-0.04,0.81-0.12,1.69-0.52,2.42
	c-0.14,0.24-0.52,0.25-0.66,0c-0.88-1.66-2.28-2.72-3.97-3.48c-1.58-0.71-3.24-1.21-4.71-2.14c-0.19-0.12-0.27-0.43-0.08-0.6
	c0.05-0.04,0.1-0.08,0.14-0.12c-0.01-0.15,0.07-0.31,0.27-0.35c0.08-0.02,0.16-0.04,0.24-0.07c0.97-0.77,1.97-1.53,2.76-2.48
	c0.45-0.72,0.85-1.48,1.31-2.14c0.28-0.62,0.5-1.27,0.6-1.93C357.65,62.69,357.44,61.57,357.31,60.48z M356.13,61.2
	c0.26,4.55-2.63,6.95-6.14,9.22c1.07-7.03,0.11-13.8-1.92-21.52C352.98,52.46,355.83,55.96,356.13,61.2z M296.2,15.89
	c0.65-0.81,1.51-0.62,2.42-0.35c4.07,1.22,7.19,5.82,7.15,10.78c-0.21,1.1,0.45,3.08-1.6,3.08c-1.74,0.01-3.82,0.06-4.32-2.64
	c-0.58-3.1-1.48-6.14-3.19-8.87C296.29,17.28,295.58,16.67,296.2,15.89z M131.73,68.3c2.24-0.39,1.89-0.29,1.29-2.43
	c-0.43-1.51,0.23-3.45,0.77-5.08c0.37-1.11,1.99-1.2,2.66-0.74c2.33,1.6,4.59-4.06,7.04,0.79c-2.59-5.84,0.54-8.52,4.05-11.46
	c4.01-3.36,4.38,2.22,6.76,2.47c0.93-1.13,0.03-1.72-0.42-2.41c-2.13-3.3-2.43-6.83-0.08-9.94c2.11-2.79,5.07-4,8.58-1.88
	c1.32,0.8,1.78-0.43,2.13-1.37c0.71-1.95,2.26-2.99,4-3.85c4.64-2.31,5.45-1.89,5.68,2.94c0.91,0.29,0.98-0.43,1.19-0.99
	c3.51-9.15,8.21-12,17.96-10.85c1.41,0.17,2.13-0.54,2.5-1.75c0.47-1.53,1.27-2.79,2.87-3.3c1.63-0.51,3.45-0.7,4.69,0.52
	c1.14,1.12-0.33,2.31-0.72,3.42c-0.7,2-1.66,3.92-1.41,6.42c1.89-0.59,1.7-2.25,2.01-3.34c1.91-6.78,6.32-10.77,13.11-12.33
	c1.51-0.35,3-0.54,4.52-0.33c1.11,0.16,2.55,0.34,2.72,1.62c0.15,1.16-1.35,1.29-2.13,1.88c-1.58,1.21-4.06,1.47-4.54,4.15
	c8.94-2.31,15.32-11.08,25.65-9.74c-0.21,2.66-3.56,2.41-2.95,5.4c11.58-7.29,20.93-3.92,29.02,6.08c-0.67-3.32-2.74-5.45-5.1-7.4
	c-0.85-0.7-2.23-1.2-1.83-2.57c0.35-1.2,1.71-1.35,2.78-1.74c3.19-1.17,5.62-0.53,8.16,2.02c2.78,2.79,4.9,6.25,8.22,8.56
	c-0.35-3.24-3.19-4.95-4.34-7.65c12.53-5.23,23.08,5.25,22.16,22.58c-2.2-3.59-4.15-6.85-7-9.27c-2.62-2.22-5.16-5.1-9.38-3.79
	c8.85,3.52,14.27,10.07,16.28,19.06c2.05,9.15-1.54,17.01-8.39,24.05c3,0.3,3.6-1.21,4.35-2.19c4.89-6.42,7.3-13.5,5.81-21.69
	c-0.59-3.23,0.87-6.47,0.31-9.81c-0.26-1.55,1.13-1.35,2.14-0.99c2.89,1.01,5.06,2.94,6.44,5.62c4.06,7.85,5.72,15.92,2.01,24.44
	c-0.37,0.84-1.17,1.74-0.17,3.31c2.42-2.99,2.92-6.38,3.66-9.73c0.33-1.48-0.43-3.87,1.44-4.29c1.52-0.34,2.78,1.54,3.92,2.69
	c5.81,5.91,6.92,16.21,2.79,24.49c-0.63,1.26-1.95,2.35-1.5,4.36c2.73-1.63,3.51-4.26,4.24-6.67c2.84-9.36,1.19-22.29-9.42-27.43
	c-1.36-0.66-1.58-1.84-1.95-3.05c-0.97-3.15-2-6.26-3.51-9.22c-1.39-2.71-0.48-4.25,2.54-4.84c4.21-0.81,8.48,1.59,10.35,5.98
	c0.89,2.07,1.47,4.26,1.45,6.63c-2.38,0.52-4.02-2.54-6.73-0.99c3.41,2.77,8.29,3.45,10.13,7.91c1.69,4.09,1.48,8.51,2.29,12.75
	c2.85-10.52-5.14-18.83-5.73-29.16c7.39,4.96,10.4,12.26,12.56,20.14c2.27,8.29,0.48,15.89-3.85,23.15
	c5.03-4.7,6.79-10.7,6.51-17.19c-0.27-6.36-2.65-12.3-5.24-18.14c5.57-0.66,9.2,1.55,11.12,7.15c2.87,8.37,3.34,16.83,0.3,25.33
	c-0.61,1.69-1.86,3.29-1.45,5.42c1.93-0.88,2.18-2.66,2.73-4.13c1.03-2.73,2.74-2.61,4.81-1.43c2.86,1.64,4.03,5.35,3.12,9.44
	c-0.31,1.39-1.5,2.69-0.52,4.52c2.78-3,2.25-6.59,2.34-10.78c3.02,5.3,2.87,10.06,0.54,14.61c-2.44,4.76-7.29,5.31-11.88,5.14
	c-4.89-0.17-9.32-2.14-13.59-6c3.26-0.17,5.97-0.04,8.56-0.52c2.78-0.52,4.99-2.07,5.33-5.66c-3.6,4.43-8.26,4.47-14.14,3.72
	c4.73-1.65,9.08-2.35,11.73-6.57c-2.22-0.54-3,1.24-4.31,1.65c-3.26,1.01-6.18,4.47-10.09,1.25c-0.51-0.42-2.1,0.44-3.38,0.76
	c0.73-1.95,3.59-2.07,3.64-4.77c-3.77,0.86-6.01,5.17-10.32,4.04c-1.05-1.11,1.71-1.63,0.22-3.03c-5.57,3.01-11.48,5.46-18.21,2.71
	c0.44-2.28,3.54-2.14,3.9-5.15c-4,1.49-7.18,3.96-10.97,4.89c-3.86,0.95-7.73,1.08-12.35,0.57c3.76-4,7.85-7.11,10.78-12.46
	c-2.95,0.92-3.88,2.62-5.01,3.99c-3.29,4-7.08,7.22-12.14,8.77c-6.01,1.84-14.03-2.27-15.69-8.14c-0.24-0.85-0.67-1.77,0.16-2.47
	c0.67-0.57,1.44-0.06,2.15,0.15c11.39,3.37,19.02,0.64,25.45-9.12c3.42-5.19,5.77-13.91,4.93-19.16c-1.19,1.83-1.2,3.57-1.55,5.22
	c-1.79,8.43-4.95,16.02-12.92,20.56c-4.71,2.69-9.61,2.96-14.62,0.9c-1.81-0.74-2.6-1.6-1.27-3.69c8.02-12.58,6.16-25.1-0.71-37.39
	c-2.71-4.86-6.1-9.26-10.97-12.85c-0.73,2.36,1,3.01,1.9,3.95c6.74,7.03,11.6,15.04,13.02,24.84c1.45,10.03-1.5,18.48-9.19,25.24
	c-2.53,2.23-5.52,2.73-8.78,3.06c2.16,2.1,4.49,1.46,6.89,0.43c1.29-0.55,3.02-2.57,3.67,0.46c0.41,1.93,3.82,4.13-0.58,5.99
	c-6.1,2.58-10.56,7.41-14.71,12.39c-2.13,2.56-3.33,2.3-5.02-0.33c-3.61-5.61-8.68-9.51-14.9-11.92c-3.27-1.27-6.57-1.79-10.04-0.74
	c-1.78,0.55-3.42,0.69-5.37-0.32c-2.52-1.3-5.58-1.09-8.64-1.14c1-2.17,3.59-2.84,3.97-6.51c-8.62,8.63-18.01,9.26-28.44,5.02
	c1.77,3.3,1.77,3.3,13.45,5.4c-4.69,6-10.96,7.52-17.84,7.92c-0.74-1.74,1.57-2.92,0.39-5.36c-3.46,6.32-7.96,10.93-15.02,12.18
	c2.81-2.42,3.58-6.44,7.67-7.98c3.64-1.37,5.96-4.7,5.86-9.01c-0.04-1.97-0.51-3.25-2.96-1.84c-3.63,2.09-7.15,0.42-10.59-0.84
	c-1.19-0.44-1.56-1.24-0.38-2.24c0.87-0.73,1.78-1.45,2.5-2.32c3.2-3.86,3.16-3.85,7.33-0.84c1.31,0.95,2.46,2.21,4.4,2.21
	c-5.9-7.56-15.5-9.84-23.09-16.45c0.26,2.93,1.74,3.8,2.96,4.74c1.19,0.93,2.63,1.53,3.88,2.39c1.69,1.16,4.8,1.33,4.61,3.88
	c-0.2,2.77-2.64,4.51-5.14,5.65c-4.45,2.03-8.98,2.45-13.66,0.67c-1.46-0.55-2.86-1.71-4.65-1.15c-0.28,1.64,1.46,1.57,1.99,2.45
	c-0.01,0.6-0.46,0.55-0.81,0.57c-2.78,0.12-5.63,0.55-8.21-0.86c-1.88-1.03-3.18-2.64-2.82-4.95c0.39-2.5,2.47-2.05,4.2-2.15
	c1.18-0.07,2.51,0.24,3.49-1.28c-2.99-1.37-6.96,0.62-9.12-3.32C126.15,67.31,128.87,68.8,131.73,68.3z M97.69,171.87
	c-1.81-9.48-0.39-18.94,0.12-28.41c0.42-7.95,2.36-15.7,2.71-23.69c0.17-4.04,3.26-7.57,4.6-11.55c2.2-6.56,4.14-13.38,10.3-17.67
	c0.1-0.07,0.27-0.2,0.25-0.27c-1.05-5.03,4.61-5.38,6.12-8.71c0.85-1.87,2.46-2.52,4.6-0.76c2.22,1.82,5.17,2.4,7.94,1.5
	c5.06-1.65,10.34-0.61,15.44-1.61c0.79-0.15,1.76,0.19,2.54,0.54c4.49,2.05,9,3.86,14.71,2.28c-2.36,2.23-4.79,1.55-6.86,2.18
	c-5.04,1.53-9.69,3.82-14.36,6.12c-1.25,0.62-3.17,0.93-1.61,3.18c0.76,1.09-0.57,1.4-1.23,1.89c-8.96,6.65-15.42,14.9-17.21,26.27
	c-0.42,2.66-0.65,5.33-0.18,7.94c1.52,8.44,0.52,16.7-3.73,23.93c-5.84,9.93-7.64,20.81-9.42,31.8c-1.31,8.09-2.45,16.21-3.69,24.41
	c-3.91-3.78-4.32-9.72-8.97-12.76c-0.39-0.25-0.49-1.14-0.51-1.75c-0.2-6.19-0.43-12.37-0.46-18.56
	C98.78,175.99,98.09,173.97,97.69,171.87z M317.95,402.64c0.68,0.71,1.54,1.46,2.45,1.71c5.58,1.54,7.19,4.23,5.19,9.76
	c-1.11,3.08-2.61,6.07-4.32,8.87c-15.6,25.68-38.71,40.12-68.01,45.27c-13.37,2.35-26.87,3.72-40.39,4.32
	c-11.42,0.5-22.64-1.88-33.93-3.6c-7.79-1.19-15.39-2.48-22.86-5.06c-12.71-4.39-22.2-12.98-30.96-22.64
	c-2.1-2.31-3.32-5.19-3.64-8.25c-0.95-9.19-1.7-18.4-2.54-27.6c-0.4-4.36,1.72-7.84,4.04-11.2c0.21-0.3,0.43-0.74,0.72-1.02
	c0.17-0.52,0.44-1.01,0.76-1.48c0.36-0.53,0.66-1.05,0.94-1.63c0.14-0.28,0.32-0.72,0.6-0.98c-0.02-0.14,0.03-0.28,0.14-0.37v-0.06
	c0-0.1,0.04-0.19,0.11-0.27c0.07-0.07,0.17-0.11,0.27-0.11c0.05,0,0.1,0.01,0.15,0.03c0.05,0.02,0.09,0.04,0.12,0.08
	c0.04,0.03,0.06,0.08,0.08,0.12c0.02,0.05,0.03,0.09,0.03,0.15v0.02c0.07,0.05,0.12,0.13,0.14,0.22c0.32,0.5,0.64,0.99,0.93,1.5
	c7.99,11.89,16.21,23.36,25.2,34.28c7.26,8.82,14.96,17.29,24.46,23.69c11,7.42,23.78,9.93,36.76,10.99
	c8.46,0.69,16.95,0.26,25.35-1.56c11.93-2.59,21.3-9.81,30.95-16.55c14.44-10.08,25.79-23.17,36.19-37.18
	c1.13-1.51,2.35-2.96,4.17-5.24c-1.78,8.47-3.4,16-2.24,23.81c1.51-8.25,1.16-16.87,5.05-24.78
	C315.32,399.61,316.57,401.19,317.95,402.64z M371.13,222.97c-1.51,9.59-0.09,19.67-4.2,28.77c-2.74,6.08-6.78,11.55-8.75,18.07
	c0.94-6.84,1.47-13.64,1.48-20.47c0-1.17,0.24-2.2,1.55-2.09c2.92,0.23,3.41-1.33,3.86-3.83c0.4-2.25,1.92-4.3,2.91-6.36
	c-0.52-0.73-1.17-0.53-1.36-0.14c-2.63,5.32-7.4,3.91-11.61,3.46c-1.87-0.2-2.45-0.51-2.25,1.71c0.23,2.59,0.02,4.99,3.73,5.28
	c1.89,0.14,1.82,2.21,1.69,3.73c-1.05,12.61-2.32,25.2-4.25,37.72c-0.68,4.39,0.21,8.6,1.42,12.74c1.3,4.45,1.77,8.94,1.37,13.53
	c-0.34,3.9-2.84,7.09-6.37,8.2c-2.14,0.67-3.13,0.28-2.69-2.3c0.41-2.4,1.59-4.75,0.82-8.01c-2.31,3.49-2.19,7-2.9,10.21
	c-5.07,22.92-13.76,44.27-27.6,63.32c-9.1,12.52-18.52,24.8-28.87,36.32c-6.74,7.5-14.9,13.34-22.96,19.27
	c-8,5.89-16.2,11.36-26.15,13.5c-19.63,4.22-38.5,2.14-56.65-6.51c-11.8-5.62-19.98-15.37-28.21-24.94
	c-11.68-13.6-21.5-28.52-30.42-44.08c-7-12.21-10.03-25.68-13.26-39.1c-2.25-9.34-4.82-18.62-5.01-28.38
	c-0.1-5.01-2.74-9.68-2.93-14.81c-0.62-16.7-2.05-33.38-0.81-50.11c0.38-5.18,0.61-10.34,1.58-15.48c0.61-3.26,2.23-4.57,5.3-4.73
	c1.34-0.07,2.79-0.05,3.57-1.86c-2.12-1.24-4.23,0.12-6.26-0.15c-1.35-0.17-2.79-0.29-2.82-1.88c-0.04-1.98,1.71-1.38,2.87-1.47
	c1.89-0.16,3.86,1.27,6.2-0.37c-3.4-1.58-6.65-1.47-9.81-1.69c-1.35-0.09-1.6,1.1-1.48,2.17c1.75,15.02-1.99,29.89-1.05,44.95
	c0.71,11.36,0.36,22.79,1.54,34.14c0.24,2.28-0.6,2.63-2.65,1.9c-6.32-2.26-9.59-6.92-10.29-13.35c-0.48-4.41-0.34-8.82,1.17-13.15
	c1.68-4.8,2.59-9.79,2.57-15.49c3.29,5.14,2.65,11.11,5.48,15.86c-0.13-4.92-0.8-9.74-2.68-14.23c-5.41-12.93-6.07-26.05-1.51-39.28
	c1.86-5.39,1.33-9.76-2.92-13.79c-1.93-1.83-3.23-4.32-5.28-7.17c-0.23,4.1,1.93,6.32,3.85,8.18c4.04,3.91,4.7,7.98,2.48,13.04
	c-1.2,2.74-1.64,5.82-2.64,9.56c-3.55-10.17-8.18-19.25-7.54-29.76c0.1-1.67,0.21-3.32,1.02-4.78c1.54-2.78,3.53-4.02,6.85-2.46
	c6.87,3.23,13.64,6.31,15.17,15.04c0.25,1.45,1.96,2.72,1.87,5.42c2.95-2.73,3.78-5.6,3.94-8.49c0.7-12.7,3.5-25.06,5.71-37.51
	c0.67-3.78,2.31-7.23,4.22-10.55c4.99-8.68,7.38-17.85,6.23-27.99c-1.73-15.31,5.48-26.3,17.73-34.49c2.29-1.53,3.21-4.43,6.11-5.33
	c1.66-0.51,3-1.37,4.2,0.65c1.11,1.88,0.74,3.33-0.93,4.62c-0.9,0.7-2.85,0.77-2.16,2.55c0.63,1.62,2.42,1.88,3.89,1.89
	c3.22,0.02,5.87-1.63,8.06-3.79c2.52-2.48,5.44-3.44,8.88-3.5c3.21-0.05,6.65-0.49,9.06-2.43c3.95-3.16,8.92-4.09,12.96-6.9
	c1.11-0.77,2.52-1.16,3.85-1.55c1.7-0.49,3.96-1.29,5.06,0c1.27,1.5-1.22,2.64-1.77,4.08c-0.45,1.17-1.55,2.52-0.37,3.45
	c1.52,1.19,2.08-0.78,2.85-1.56c5.72-5.79,11.54-7,19.03-3.84c5.54,2.34,9.84,6.14,13.15,11.15c2.43,3.68,3.52,3.73,6.64,0.52
	c4.23-4.35,8.02-9.15,13.63-11.99c2.71-1.37,5.07-1.99,7.71,0.1c1.61,1.27,3.79,2.25,5.68,1.87c8.3-1.68,16.85,1.48,25.04-1.42
	c1.78-0.63,3.36-0.55,5.1,0.33c3.42,1.75,7.24,2.03,10.76,0.92c4.49-1.41,8.48,0.06,12.61,1.04c2.11,0.5,3.27,1.74,3.77,4.14
	c0.95,4.58,3.96,8.12,6.96,11.6c3.14,3.64,6.32,7.25,9.15,11.12c5.39,7.37,7.62,16,8.77,24.85c2.62,20.03,2.96,40.19,2.22,60.34
	c-0.33,9.09-1.93,18.14,0.11,27.2c0.17,0.74,0.26,1.49,0.5,2.2c0.1,0.31,0.47,0.54,1.21,1.35c0.47-6.2,4.51-8.93,8.64-11.45
	C368.32,218.37,371.62,219.91,371.13,222.97z"/>
<g>
	<path class="st3" d="M194.86,198.27c3.71,0.46,7.42,1.07,11.14,1.35c15.27,1.14,30.54,2.16,45.81,3.25
		c14.64,1.05,29.27,2.14,43.91,3.23c0.58,0.04,1.15,0.28,1.79,1.33c-1.17,0.28-2.36,0.86-3.51,0.78
		c-13.25-0.89-26.49-1.89-39.74-2.85c-11.61-0.85-23.21-1.7-34.82-2.53c-8.08-0.57-16.16-1.09-24.23-1.66
		c-1.84-0.13-3.54-0.46-1.87-2.9C193.84,198.27,194.35,198.27,194.86,198.27z"/>
	<path class="st3" d="M363.84,241.65c-1.09-1.77-2.32-3.48-3.25-5.33c-1.28-2.56-2.34-5.24-3.72-8.4
		c-2.05,4.58-1.67,9.34-4.63,12.82c1.88-5.05,0.37-11.16,4.53-15.99c2.54,4.99,4.8,9.43,7.07,13.86
		C363.84,239.62,363.84,240.64,363.84,241.65z"/>
	<path class="st3" d="M349.38,307.11c1.2-5.11,2.39-10.23,3.59-15.34c0.25,0.06,0.5,0.13,0.74,0.19c-1.19,5.05-2.38,10.1-3.57,15.15
		C349.88,307.11,349.63,307.11,349.38,307.11z"/>
	<path class="st3" d="M251.21,225.18c-10.78-8.12-21.6-9.28-33.45-2.05c0.59-3.35,2.72-4.97,5.09-5.65
		c8.15-2.35,16.27-1.82,24.03,1.65C249.09,220.13,251.03,221.83,251.21,225.18z"/>
	<path class="st3" d="M113.46,221.36c-4.05,0.12-7.93-2.79-12.22,0.03c1.89-3.64,3.78-7.28,5.81-11.21
		C109.22,213.97,111.28,217.56,113.46,221.36z M103.93,219.29c2.59,0,4.4,0,6.48,0c-1.05-2.12-1.89-3.81-2.91-5.86
		C106.27,215.47,105.3,217.05,103.93,219.29z"/>
	<path class="st3" d="M102.11,225.37c-1.47,4.6-2.94,9.21-4.41,13.81c-0.23-0.07-0.46-0.14-0.69-0.21
		c1.45-4.69,2.89-9.38,4.34-14.07C101.61,225.06,101.86,225.21,102.11,225.37z"/>
	<path class="st3" d="M103.93,219.29c1.37-2.24,2.33-3.82,3.57-5.86c1.02,2.05,1.86,3.74,2.91,5.86
		C108.34,219.29,106.52,219.29,103.93,219.29z"/>
</g>
<g>
	<path class="st3" d="M111.13,227.19c2.42-5.63,4.36-11.54,7.38-16.83c5.37-9.42,14.23-13.15,24.78-14.44
		c15.31-1.87,30.38-0.32,45.23,2.74c7.03,1.45,14.19,4.43,20.11,8.45c4.41,2.99,7.69,8.41,10,13.42c1.33,2.88,0.3,7.27-0.63,10.72
		c-5.37,20.13-16.82,36.14-34.08,47.71c-11.29,7.56-23.81,7.66-36.47,3.98c-20.68-6.01-30.02-21.73-34.78-41.23
		c-0.56-2.3-1.04-4.61-1.55-6.92C111.13,232.27,111.13,229.73,111.13,227.19z M157.28,197.18c-4.64,0.4-9.43,0.77-14.21,1.22
		c-6.82,0.65-13.59,2.06-17.91,7.81c-3.29,4.37-6.28,9.29-8.04,14.44c-8.54,24.93,8.31,54.38,30.57,60.06
		c13.72,3.5,26.55,3.1,38.2-5.84c14.18-10.88,24.13-24.78,29.34-41.92c0.94-3.09,2.07-6.72,1.3-9.61
		c-1.97-7.31-5.81-13.27-13.28-16.96C188.68,199.2,173.07,198.59,157.28,197.18z"/>
	<path class="st3" d="M300.66,295.7c-6.18-2.1-12.53-3.77-18.49-6.36c-18.58-8.07-27.99-23.24-31.65-42.49
		c-0.75-3.95-0.78-8.04-1-12.07c-0.58-10.66,5.96-18.29,14.9-21.94c19.16-7.83,38.55-8.36,58.2-2.04c3.36,1.08,6.74,2.11,10.06,3.29
		c10.88,3.85,17.23,11.47,19.02,22.9c0.09,0.57,0.48,1.09,0.72,1.63c0,3.3,0,6.6,0,9.9c-0.22,0.59-0.55,1.15-0.66,1.76
		c-2.82,16.25-9.99,29.94-24.19,38.99c-4.47,2.85-9.8,4.33-14.74,6.44C308.78,295.7,304.72,295.7,300.66,295.7z M251.86,239.89
		c0.7,10.07,4.06,22.66,12.74,33.47c6.83,8.52,15.95,13.75,25.96,17.12c19.14,6.43,32.77,3.38,46.55-12.73
		c7.86-9.19,12.56-20.27,12.92-32.57c0.39-13.47-4.84-24.89-19.48-29.45c-2.77-0.86-5.55-1.73-8.31-2.63
		c-18.58-6.07-37.01-5.86-55.31,1.21C255.58,218.7,251.7,224.31,251.86,239.89z"/>
</g>
<path class="st3" d="M199.82,40.16c-4.43,16.31-2.73,29.48,13.05,37.73c-3.36,0.7-7.61-1.09-10.19-4.96c-2-3-4.35-3.78-7.8-4.08
	c-8.37-0.71-15.93-3.48-20.31-11.43c-1.88-3.42-3.03-7.06-0.99-11.23c1.46,1.63,0.45,3.03,0.58,4.36c0.54,5.52,3.65,9.35,8.04,12.3
	c4,2.69,8.68,3.43,13.3,4.22c2.51,0.42,3.64-0.25,2.5-3.05c-2.06-5.05-2.11-10.4-1.82-15.74C196.33,45.52,197,42.87,199.82,40.16z"
	/>
<g>
	<path class="st3" d="M149.95,186.09c9.75,4.84,19.49,9.69,29.24,14.53c0.16-0.28,0.31-0.57,0.47-0.85c-4.03-2.4-8.06-4.8-12.09-7.2
		c0.09-0.23,0.19-0.45,0.28-0.68c6.1,2.03,12.2,4.06,17.67,5.88c0.03,0.04-0.55-0.64-1.13-1.32c0.15-0.17,0.29-0.34,0.44-0.51
		c2.08,1.86,4.17,3.73,6.4,5.72c0.08-0.69,0.15-1.21,0.32-2.65c3.36,4.58,6.3,8.6,9.24,12.62c-0.35,0.33-0.7,0.67-1.05,1
		c-1.63-2.1-3.27-4.19-4.9-6.29c-0.21,0.19-0.43,0.38-0.64,0.57c0.54,1.3,1.08,2.6,1.49,3.59c-7.01-0.7-11.9-5.76-18.2-8.05
		c1.08,0.98,2.15,1.96,3.23,2.94c-0.16,0.27-0.33,0.55-0.49,0.82c-3.63-2.13-7.26-4.26-10.89-6.38c-0.12,0.11-0.23,0.22-0.35,0.33
		c0.65,0.76,1.29,1.51,1.98,2.31c-0.29,0.12-0.52,0.32-0.67,0.27c-5.12-1.79-10.78-0.91-15.72-4.38c-4.55-3.2-10.1-4.97-15.26-8.19
		c2.48-0.28,4.96-0.56,7.75-0.88c-0.66-0.25-1.45-0.54-2.24-0.83c0.25-0.32,0.5-0.64,0.75-0.96c4.14,2.03,8.28,4.06,12.41,6.1
		c0.18-0.21,0.36-0.42,0.54-0.63c-0.9-0.73-1.74-1.55-2.7-2.19c-2.44-1.61-4.93-3.13-7.4-4.68
		C148.93,186.09,149.44,186.09,149.95,186.09z"/>
	<path class="st3" d="M132.17,197.6c1.56-4.35,4.69-3.23,7.87-2.73c-1.05-0.67-2.11-1.34-3.16-2.01c0.15-0.3,0.31-0.6,0.46-0.9
		c6.83,1.72,12.79,5.37,19.24,8.97C147.55,203.46,139.87,200.38,132.17,197.6z"/>
	<path class="st3" d="M303.69,212.01c5.52-2.54,11.04-5.09,16.56-7.63c0.28,0.55,0.56,1.1,0.84,1.65c-3.06,1.93-6.11,3.85-9.17,5.78
		c0.04,0.11,0.07,0.21,0.11,0.32c5.67-2.07,11.34-4.14,17.01-6.21c0.1,0.31,0.21,0.61,0.31,0.92c-9.17,4.56-17.77,11.11-29.08,7.62
		c0.53-0.47,1.25-1.11,1.97-1.75C302.73,212.48,303.21,212.25,303.69,212.01z"/>
	<path class="st3" d="M335.2,212.65c-1.17,0.44-2.43,0.73-3.5,1.35c-3.36,1.96-6.62,4.18-10.81,2.2c0.32-0.57,0.77-1.38,1.72-3.08
		c-2.88,1.45-4.91,2.48-6.94,3.51c6.7-4.36,12.93-10.09,21.92-8.12c-2.03,1.17-4.15,2.4-6.27,3.62c0.11,0.22,0.22,0.45,0.32,0.67
		c2.05-1.02,4.08-2.1,6.19-3c0.35-0.15,1.03,0.44,1.55,0.69C337.98,211.22,336.59,211.93,335.2,212.65z"/>
	<path class="st3" d="M303.69,212.01c-0.48,0.23-0.96,0.46-1.44,0.7c-4.21,0.66-8.42,1.31-12.63,1.97
		c-0.12-0.36-0.24-0.72-0.36-1.07c0.75-0.69,1.5-1.38,3.11-2.86c-4.49,1.47-7.95,2.6-11.42,3.73c-0.09-0.29-0.18-0.58-0.26-0.87
		c9.34-3.12,18.68-6.24,28.02-9.37c0.1,0.26,0.19,0.52,0.29,0.78c-5.25,2.31-10.51,4.62-15.76,6.92c0.14,0.36,0.29,0.71,0.43,1.07
		c6.95-2.78,13.91-5.56,20.86-8.34c0.1,0.22,0.2,0.44,0.3,0.66c-2.85,1.32-5.76,2.53-8.53,4.02
		C305.26,209.92,304.55,211.11,303.69,212.01z"/>
	<path class="st3" d="M335.2,212.65c1.39-0.72,2.79-1.44,4.18-2.16c1.45,1.96,2.89,3.92,4.21,5.7c-5.01,5.58-9.99,4.72-15.18,1.53
		C330.66,216.04,332.93,214.34,335.2,212.65z"/>
	<path class="st3" d="M128.65,204.72c-0.71-0.53-1.36-1.02-2.02-1.52c4.66-7.21,9.67-1.24,14.59-0.12
		c-5.59,1.21-11.19,2.43-16.78,3.64c-0.09-0.49-0.18-0.99-0.27-1.48C125.6,205.07,127.03,204.91,128.65,204.72z"/>
</g>
<g>
	<path class="st0" d="M192.07,285.73c0,0-18.84,24.71,10.28,28.63"/>
	<path class="st0" d="M270.36,314.72c-3.3,5.5-15.29,3.55-15.29,3.55c-5.87-0.86-10.77,0-10.77,0s9.79-7.71,16.15-3.55
		c0,0,2.27,3.25-3.45,3.77"/>
	<path class="st0" d="M263.14,285.24c0,0,10.52,8.69,10.4,18.59"/>
	<path class="st0" d="M230.75,322.92c-8.41-1.96-17.15-10.28-17.15-10.28c-6.61-5.87-15.41-6.12-15.41-6.12s2.2,7.58,15.54,6.12"/>
</g>
<g>
	<g>
		<path class="st3" d="M230.27,367.56c0-0.01-0.03-0.07-0.03-0.09c-0.01-0.02-0.04-0.08-0.05-0.1c-0.08-0.16-0.18-0.3-0.28-0.45
			c-0.11,0-0.23-0.01-0.34,0c-0.09,0.01-0.17,0.01-0.26,0.02c-0.02,0-0.04,0-0.06,0.01c0,0,0,0,0,0c-0.02,0-0.03,0-0.05,0.01
			c-7.26,2.53-12.84-0.13-14.2-0.88c-0.02,0.01-0.04,0.02-0.05,0.03c-0.07,0.04-0.14,0.11-0.18,0.17c-0.04,0.06-0.09,0.14-0.1,0.18
			c-0.01,0.04-0.03,0.08-0.03,0.12c-0.01,0.07-0.01,0-0.01,0.07c-0.01,0.32,0.13,0.61,0.38,0.85c0.12,0.11,0.14,0.24,0.1,0.35
			c1.51,0.72,4.26,1.72,7.85,1.72c1.62,0,3.41-0.21,5.32-0.74c0.06-0.03,0.13-0.06,0.19-0.08c0.11-0.04,0.22-0.08,0.33-0.11
			c0.2-0.14,0.4-0.28,0.6-0.41c0.12-0.08,0.24-0.16,0.35-0.24c0.06-0.04,0.11-0.08,0.17-0.12c0.03-0.02,0.05-0.04,0.08-0.06
			c0.03-0.02-0.02,0.02,0.03-0.02c0.08-0.07,0.16-0.14,0.23-0.21C230.27,367.58,230.27,367.57,230.27,367.56z"/>
	</g>
	<g>
		<path class="st3" d="M246.67,386.84c0.03-0.02,0.05-0.04,0.08-0.05c0.01-0.01,0.01-0.01,0.01-0.01c0,0,0,0,0.01-0.01
			c0.06-0.05,0.12-0.1,0.18-0.15c0.13-0.12,0.25-0.24,0.37-0.37c0.03-0.04,0.07-0.08,0.1-0.12c0.01-0.01,0.02-0.02,0.03-0.04
			c0.05-0.06,0.1-0.13,0.14-0.2c0.05-0.07,0.09-0.15,0.13-0.22c0.01-0.03,0.03-0.05,0.04-0.08c0,0,0.02-0.05,0.03-0.07
			c0.02-0.07,0.04-0.14,0.05-0.21c-0.03,0.1,0,0.01,0-0.03c0-0.03,0-0.07,0-0.1c0,0,0,0,0,0c0-0.02-0.01-0.03-0.01-0.05
			c0-0.01-0.01-0.03-0.01-0.05c-0.01-0.02-0.03-0.06-0.03-0.07c-0.01-0.01-0.02-0.03-0.03-0.04c-0.01-0.01-0.02-0.02-0.03-0.03
			c-0.02-0.01-0.04-0.01-0.06-0.02c-0.01,0-0.04-0.01-0.05-0.01c-0.14-0.01-0.29-0.01-0.43-0.01c-7.29,4.65-15.13,5.62-15.21,5.63
			l-0.14,0.03c-9.55,3.09-25.32-0.56-28.85-1.45c-0.13,0.03-0.26,0.06-0.39,0.1c-0.04,0.03-0.08,0.05-0.12,0.09
			c-0.07,0.07-0.13,0.14-0.17,0.21c-0.08,0.12-0.14,0.25-0.2,0.37c0.07,0.1,0.14,0.2,0.22,0.3c0.14,0.12,0.26,0.21,0.45,0.34
			c0.1,0.07,0.2,0.13,0.31,0.2c3.07,0.76,11.33,2.61,19.33,2.61c3.47,0,6.89-0.35,9.82-1.28c0.83-0.11,7.48-1.07,14.29-4.96
			C246.52,386.99,246.58,386.9,246.67,386.84z"/>
	</g>
	<g>
		<path class="st3" d="M232.17,381.61c-0.05,0.42-0.16,0.84-0.15,1.26c0.01,0.42,0.25,0.67,0.64,0.8c0.16,0.05,0.32,0.07,0.48,0.06
			c0.49-1.33,0.77-2.9,0.91-4.4c0-0.01,0-0.01,0-0.02c0-1.16,0.1-2.33-0.26-3.45c-0.24-0.73-0.59-1.41-0.79-2.15l-0.1,0.01
			c0.05,0.92-0.04,1.86-0.23,2.77C232.65,378,232.54,379.91,232.17,381.61z"/>
	</g>
	<g>
		<path class="st3" d="M221.95,383.19c0.01,0.02,0.08,0.1,0.02,0.03c0.02,0.02,0.04,0.04,0.06,0.06c0.02,0.02,0.04,0.04,0.06,0.06
			c0.01,0.01,0.01,0.01,0.02,0.02c0.04,0.02,0.08,0.05,0.13,0.07c0.01,0,0.02,0.01,0.03,0.01c0.03,0.01,0.06,0.02,0.1,0.03
			c0.02,0.01,0.05,0.01,0.07,0.01c0.01,0,0.05,0.01,0.06,0.01c0.08,0.01,0.16,0.01,0.24,0.01c0.14,0,0.27,0,0.41-0.01
			c0.01-0.02,0.02-0.03,0.03-0.04c0.28-0.99,0.98-3.59,1.39-5.79c0-0.02,0-0.04,0-0.06c-0.21-0.87-0.51-1.73-0.94-2.49
			c-0.12,0.45-0.24,0.9-0.39,1.33c-0.29,1.93-1.03,4.81-1.48,6.43C221.83,382.97,221.88,383.09,221.95,383.19z"/>
	</g>
	<g>
		<path class="st3" d="M188.58,368.25C188.57,368.25,188.57,368.25,188.58,368.25c-0.08-0.36-0.17-0.71-0.26-1.06
			c-0.05-0.08-0.1-0.17-0.15-0.25c-0.34-0.65-0.62-1.33-0.9-2.01l-0.01,0c-0.05,0.27-1.19,6.6,2.17,9.79l1.05-1.1
			C189.05,372.25,188.64,370.06,188.58,368.25z"/>
	</g>
	<g>
		<path class="st3" d="M210.59,386.8c-24.45-8.46-28.29-21.89-28.68-23.58c-1.83-2.72-3.93-2.8-4.02-2.8l0.01-1.52
			c0.12,0,3.05,0.04,5.37,3.61l0.08,0.12l0.03,0.15c0.03,0.14,3.06,14.05,27.72,22.59L210.59,386.8z"/>
	</g>
	<g>
		<path class="st3" d="M188.63,375.57l-0.05,0.02c0.02,1.63,0.49,3.18,1.13,4.68c1.75,2.19,4.61,4.9,9.2,7.31l0.71-1.35
			C190.74,381.56,188.65,375.63,188.63,375.57z"/>
	</g>
	<g>
		<path class="st3" d="M269.38,364.12l-0.07-0.05c-22.29-13.44-31.96-9.56-32.97-9.09c-4.55,1.33-13.91,0.45-14,0.44l-0.06-0.01
			l-0.06,0c-7.56,0.41-17.24-3.59-17.33-3.63l-0.13-0.04c-11.81-2.65-26.65,6.88-27.28,7.28l-2.27,1.47l2.7-0.07
			c0.06-0.01,5.55-0.12,9.86,2.5l0.11,0.05c0.12,0.05,3,1.2,8,0.55c0.46,0.01,4.32,0.15,7.02,2.15c0.31,0.21,2.47,1.66,4.63,1.84
			c0.06-0.01,0.11-0.03,0.17-0.04c0.09-0.02,0.17-0.05,0.26-0.08c0.33-0.41,0.69-0.79,1.06-1.16c-0.03-0.01-0.06-0.03-0.08-0.04
			c-0.02-0.01-0.15-0.06-0.05-0.02c-0.07-0.03-0.14-0.05-0.21-0.08c-0.1-0.04-0.2-0.07-0.3-0.11c-1.57,0.24-3.81-1-4.6-1.55
			c-3.26-2.4-7.76-2.43-7.95-2.43l-0.1,0.01c-4.27,0.57-6.86-0.29-7.23-0.42c-2.78-1.67-5.91-2.31-8.06-2.54
			c4.51-2.51,15.27-7.72,23.91-5.83c0.94,0.39,10.23,4.13,17.89,3.73c0.89,0.08,9.91,0.87,14.59-0.52l0.13-0.05
			c0.09-0.04,9.32-4.39,31.52,8.98l0.68,0.53c-2.08,1.75-8.02,7-12.26,13.39c-0.08,0.45-0.17,0.89-0.25,1.34
			c0.36,0.1,0.76,0.09,1.14,0.08c4.98-7.77,12.98-14.16,13.06-14.23l0.76-0.6L269.38,364.12z"/>
	</g>
	<g>
		<path class="st3" d="M249.08,365.82l-0.15,0.07c-3.68,2.27-8.4,1.98-11.15,1.54c-0.38,0-0.76,0-1.14,0c-0.06,0-0.1-0.01-0.15-0.03
			c-0.18,0.1-0.36,0.2-0.55,0.3c-0.23,0.11-0.47,0.24-0.66,0.4c0.27,0.22,0.56,0.41,0.86,0.58c1.14,0.26,3.07,0.6,5.31,0.6
			c2.59,0,5.58-0.46,8.2-2.04c0.81-0.26,8.56-2.58,20.6-0.62l0.24-1.5C257.41,362.98,249.42,365.7,249.08,365.82z"/>
	</g>
</g>
</svg>
